<?xml version="1.0" encoding="UTF-8"?>
<svg width="443px" height="84px" viewBox="0 0 443 84" version="1.1" xmlns="http://www.w3.org/2000/svg" xmlns:xlink="http://www.w3.org/1999/xlink">
    <!-- Generator: Sketch 51.3 (57544) - http://www.bohemiancoding.com/sketch -->
    <title>about_title</title>
    <desc>Created with Sketch.</desc>
    <defs></defs>
    <g id="Page-1" stroke="none" stroke-width="1" fill="none" fill-rule="evenodd">
        <g id="À-propos" transform="translate(-75.000000, -234.000000)" fill="#1E1E1E">
            <g id="about_title" transform="translate(75.000000, 234.000000)">
                <path d="M45.824,19.2 C46.9440056,19.2 47.8119969,19.5079969 48.428,20.124 C49.0440031,20.7400031 49.4359992,21.3559969 49.604,21.972 L68.336,75.564 C68.3920003,75.7320008 68.42,75.9279989 68.42,76.152 C68.42,76.6560025 68.2380018,77.0899982 67.874,77.454 C67.5099982,77.8180018 67.0760025,78 66.572,78 L51.032,78 C49.9119944,78 49.1280022,77.7620024 48.68,77.286 C48.2319978,76.8099976 47.9240008,76.3480022 47.756,75.9 L45.74,70.356 L27.68,70.356 L25.664,75.9 C25.4959992,76.3480022 25.1880022,76.8099976 24.74,77.286 C24.2919978,77.7620024 23.5080056,78 22.388,78 L6.848,78 C6.34399748,78 5.91000182,77.8180018 5.546,77.454 C5.18199818,77.0899982 5,76.6560025 5,76.152 C5,75.9279989 5.02799972,75.7320008 5.084,75.564 L23.816,21.972 C23.9840008,21.3559969 24.3759969,20.7400031 24.992,20.124 C25.6080031,19.5079969 26.4759944,19.2 27.596,19.2 L45.824,19.2 Z M41.456,53.976 L36.668,38.352 L31.964,53.976 L41.456,53.976 Z M44.9,12.564 C45.1800014,12.8440014 45.32,13.2079978 45.32,13.656 C45.32,14.5520045 44.8720045,15 43.976,15 L31.628,15 C30.7319955,15 30.0320025,14.8600014 29.528,14.58 C29.0239975,14.2999986 28.5480022,13.964002 28.1,13.572 L15.752,3.408 C15.4719986,3.1279986 15.332,2.79200196 15.332,2.4 C15.332,1.2799944 15.8639947,0.72 16.928,0.72 L33.392,0.72 C34.0080031,0.72 34.5259979,0.80399916 34.946,0.972 C35.3660021,1.14000084 35.8839969,1.58799636 36.5,2.316 L44.9,12.564 Z M114.368,19.2 C118.176019,19.2 121.633984,19.6199958 124.742,20.46 C127.850016,21.3000042 130.509989,22.5739915 132.722,24.282 C134.934011,25.9900085 136.641994,28.1319871 137.846,30.708 C139.050006,33.2840129 139.652,36.3079826 139.652,39.78 C139.652,43.2520174 139.050006,46.2479874 137.846,48.768 C136.641994,51.2880126 134.934011,53.3599919 132.722,54.984 C130.509989,56.6080081 127.850016,57.7979962 124.742,58.554 C121.633984,59.3100038 118.176019,59.688 114.368,59.688 L108.488,59.688 L108.488,75.732 C108.488,76.3480031 108.264002,76.8799978 107.816,77.328 C107.367998,77.7760022 106.836003,78 106.22,78 L88.916,78 C88.2999969,78 87.7680022,77.7760022 87.32,77.328 C86.8719978,76.8799978 86.648,76.3480031 86.648,75.732 L86.648,21.468 C86.648,20.8519969 86.8719978,20.3200022 87.32,19.872 C87.7680022,19.4239978 88.2999969,19.2 88.916,19.2 L114.368,19.2 Z M108.068,44.148 L113.948,44.148 C114.844004,44.148 115.711996,43.7980035 116.552,43.098 C117.392004,42.3979965 117.812,41.2360081 117.812,39.612 C117.812,38.5479947 117.546003,37.4840053 117.014,36.42 C116.481997,35.3559947 115.460008,34.824 113.948,34.824 L108.068,34.824 L108.068,44.148 Z M199.964,75.228 C200.132001,75.5640017 200.216,75.8719986 200.216,76.152 C200.216,76.6560025 200.034002,77.0899982 199.67,77.454 C199.305998,77.8180018 198.872003,78 198.368,78 L181.148,78 C180.027994,78 179.188003,77.7200028 178.628,77.16 C178.067997,76.5999972 177.704001,76.124002 177.536,75.732 L170.312,59.688 L166.868,59.688 L166.868,75.732 C166.868,76.3480031 166.644002,76.8799978 166.196,77.328 C165.747998,77.7760022 165.216003,78 164.6,78 L148.136,78 C147.519997,78 146.988002,77.7760022 146.54,77.328 C146.091998,76.8799978 145.868,76.3480031 145.868,75.732 L145.868,21.468 C145.868,20.8519969 146.091998,20.3200022 146.54,19.872 C146.988002,19.4239978 147.519997,19.2 148.136,19.2 L173,19.2 C177.03202,19.2 180.643984,19.6619954 183.836,20.586 C187.028016,21.5100046 189.715989,22.8539912 191.9,24.618 C194.084011,26.3820088 195.763994,28.5239874 196.94,31.044 C198.116006,33.5640126 198.704,36.419984 198.704,39.612 C198.704,43.420019 197.864008,46.6959863 196.184,49.44 C194.503992,52.1840137 192.320013,54.3959916 189.632,56.076 L199.964,75.228 Z M166.868,43.728 L173,43.728 C174.288006,43.728 175.253997,43.2940043 175.898,42.426 C176.542003,41.5579957 176.864,40.5640056 176.864,39.444 C176.864,38.3239944 176.570003,37.2740049 175.982,36.294 C175.393997,35.3139951 174.400007,34.824 173,34.824 L166.868,34.824 L166.868,43.728 Z M260.696,41.376 C260.808001,43.784012 260.864,46.2759871 260.864,48.852 C260.864,51.4280129 260.808001,53.8639885 260.696,56.16 C260.527999,59.9120188 259.744007,63.2019859 258.344,66.03 C256.943993,68.8580141 255.026012,71.2239905 252.59,73.128 C250.153988,75.0320095 247.242017,76.4599952 243.854,77.412 C240.465983,78.3640048 236.72802,78.84 232.64,78.84 C228.495979,78.84 224.744017,78.3640048 221.384,77.412 C218.023983,76.4599952 215.126012,75.0320095 212.69,73.128 C210.253988,71.2239905 208.336007,68.8580141 206.936,66.03 C205.535993,63.2019859 204.752001,59.9120188 204.584,56.16 C204.471999,53.8639885 204.416,51.4280129 204.416,48.852 C204.416,46.2759871 204.471999,43.784012 204.584,41.376 C204.752001,37.6799815 205.535993,34.4040143 206.936,31.548 C208.336007,28.6919857 210.253988,26.2840098 212.69,24.324 C215.126012,22.3639902 218.023983,20.880005 221.384,19.872 C224.744017,18.863995 228.495979,18.36 232.64,18.36 C236.72802,18.36 240.465983,18.863995 243.854,19.872 C247.242017,20.880005 250.153988,22.3639902 252.59,24.324 C255.026012,26.2840098 256.943993,28.6919857 258.344,31.548 C259.744007,34.4040143 260.527999,37.6799815 260.696,41.376 Z M226.424,55.656 C226.536001,58.0080118 227.137995,59.7299945 228.23,60.822 C229.322005,61.9140055 230.791991,62.46 232.64,62.46 C234.488009,62.46 235.957995,61.9140055 237.05,60.822 C238.142005,59.7299945 238.743999,58.0080118 238.856,55.656 C239.024001,50.8959762 239.024001,46.1920232 238.856,41.544 C238.743999,39.1919882 238.128006,37.4700055 237.008,36.378 C235.887994,35.2859945 234.432009,34.74 232.64,34.74 C230.847991,34.74 229.392006,35.2859945 228.272,36.378 C227.151994,37.4700055 226.536001,39.1919882 226.424,41.544 C226.255999,46.1920232 226.255999,50.8959762 226.424,55.656 Z M296.144,19.2 C299.952019,19.2 303.409984,19.6199958 306.518,20.46 C309.626016,21.3000042 312.285989,22.5739915 314.498,24.282 C316.710011,25.9900085 318.417994,28.1319871 319.622,30.708 C320.826006,33.2840129 321.428,36.3079826 321.428,39.78 C321.428,43.2520174 320.826006,46.2479874 319.622,48.768 C318.417994,51.2880126 316.710011,53.3599919 314.498,54.984 C312.285989,56.6080081 309.626016,57.7979962 306.518,58.554 C303.409984,59.3100038 299.952019,59.688 296.144,59.688 L290.264,59.688 L290.264,75.732 C290.264,76.3480031 290.040002,76.8799978 289.592,77.328 C289.143998,77.7760022 288.612003,78 287.996,78 L270.692,78 C270.075997,78 269.544002,77.7760022 269.096,77.328 C268.647998,76.8799978 268.424,76.3480031 268.424,75.732 L268.424,21.468 C268.424,20.8519969 268.647998,20.3200022 269.096,19.872 C269.544002,19.4239978 270.075997,19.2 270.692,19.2 L296.144,19.2 Z M289.844,44.148 L295.724,44.148 C296.620004,44.148 297.487996,43.7980035 298.328,43.098 C299.168004,42.3979965 299.588,41.2360081 299.588,39.612 C299.588,38.5479947 299.322003,37.4840053 298.79,36.42 C298.257997,35.3559947 297.236008,34.824 295.724,34.824 L289.844,34.824 L289.844,44.148 Z M382.244,41.376 C382.356001,43.784012 382.412,46.2759871 382.412,48.852 C382.412,51.4280129 382.356001,53.8639885 382.244,56.16 C382.075999,59.9120188 381.292007,63.2019859 379.892,66.03 C378.491993,68.8580141 376.574012,71.2239905 374.138,73.128 C371.701988,75.0320095 368.790017,76.4599952 365.402,77.412 C362.013983,78.3640048 358.27602,78.84 354.188,78.84 C350.043979,78.84 346.292017,78.3640048 342.932,77.412 C339.571983,76.4599952 336.674012,75.0320095 334.238,73.128 C331.801988,71.2239905 329.884007,68.8580141 328.484,66.03 C327.083993,63.2019859 326.300001,59.9120188 326.132,56.16 C326.019999,53.8639885 325.964,51.4280129 325.964,48.852 C325.964,46.2759871 326.019999,43.784012 326.132,41.376 C326.300001,37.6799815 327.083993,34.4040143 328.484,31.548 C329.884007,28.6919857 331.801988,26.2840098 334.238,24.324 C336.674012,22.3639902 339.571983,20.880005 342.932,19.872 C346.292017,18.863995 350.043979,18.36 354.188,18.36 C358.27602,18.36 362.013983,18.863995 365.402,19.872 C368.790017,20.880005 371.701988,22.3639902 374.138,24.324 C376.574012,26.2840098 378.491993,28.6919857 379.892,31.548 C381.292007,34.4040143 382.075999,37.6799815 382.244,41.376 Z M347.972,55.656 C348.084001,58.0080118 348.685995,59.7299945 349.778,60.822 C350.870005,61.9140055 352.339991,62.46 354.188,62.46 C356.036009,62.46 357.505995,61.9140055 358.598,60.822 C359.690005,59.7299945 360.291999,58.0080118 360.404,55.656 C360.572001,50.8959762 360.572001,46.1920232 360.404,41.544 C360.291999,39.1919882 359.676006,37.4700055 358.556,36.378 C357.435994,35.2859945 355.980009,34.74 354.188,34.74 C352.395991,34.74 350.940006,35.2859945 349.82,36.378 C348.699994,37.4700055 348.084001,39.1919882 347.972,41.544 C347.803999,46.1920232 347.803999,50.8959762 347.972,55.656 Z M413.912,18.36 C418.112021,18.36 421.835984,18.9199944 425.084,20.04 C428.332016,21.1600056 431.075989,22.5879913 433.316,24.324 C435.556011,26.0600087 437.263994,27.9359899 438.44,29.952 C439.616006,31.9680101 440.232,33.8999908 440.288,35.748 C440.288,36.2520025 440.106002,36.6859982 439.742,37.05 C439.377998,37.4140018 438.972002,37.596 438.524,37.596 L421.724,37.596 C420.939996,37.596 420.310002,37.4840011 419.834,37.26 C419.357998,37.0359989 418.868003,36.7000022 418.364,36.252 C418.083999,35.9719986 417.566004,35.6500018 416.81,35.286 C416.053996,34.9219982 415.088006,34.74 413.912,34.74 C412.455993,34.74 411.420003,34.9499979 410.804,35.37 C410.187997,35.7900021 409.88,36.3639964 409.88,37.092 C409.88,37.484002 410.005999,37.8479983 410.258,38.184 C410.510001,38.5200017 410.985997,38.8419985 411.686,39.15 C412.386004,39.4580015 413.337994,39.7379987 414.542,39.99 C415.746006,40.2420013 417.29999,40.4799989 419.204,40.704 C423.404021,41.2080025 426.973985,41.9359952 429.914,42.888 C432.854015,43.8400048 435.247991,45.0579926 437.096,46.542 C438.944009,48.0260074 440.287996,49.7899898 441.128,51.834 C441.968004,53.8780102 442.388,56.2719863 442.388,59.016 C442.388,62.0960154 441.674007,64.8539878 440.246,67.29 C438.817993,69.7260122 436.858012,71.7979915 434.366,73.506 C431.873988,75.2140085 428.934017,76.5299954 425.546,77.454 C422.157983,78.3780046 418.47602,78.84 414.5,78.84 C409.851977,78.84 405.806017,78.3500049 402.362,77.37 C398.917983,76.3899951 396.062011,75.0740083 393.794,73.422 C391.525989,71.7699917 389.818006,69.8660108 388.67,67.71 C387.521994,65.5539892 386.92,63.3000118 386.864,60.948 C386.864,60.4439975 387.045998,60.0100018 387.41,59.646 C387.774002,59.2819982 388.207997,59.1 388.712,59.1 L404.672,59.1 C405.568004,59.1 406.239998,59.2259987 406.688,59.478 C407.136002,59.7300013 407.667997,60.0799978 408.284,60.528 C409.068004,61.1440031 409.949995,61.6199983 410.93,61.956 C411.910005,62.2920017 413.099993,62.46 414.5,62.46 C416.40401,62.46 417.929994,62.264002 419.078,61.872 C420.226006,61.479998 420.8,60.8920039 420.8,60.108 C420.8,59.099995 420.030008,58.3300027 418.49,57.798 C416.949992,57.2659973 414.108021,56.7200028 409.964,56.16 C406.659983,55.7119978 403.664013,55.0260046 400.976,54.102 C398.287987,53.1779954 396.006009,51.9600076 394.13,50.448 C392.253991,48.9359924 390.812005,47.1300105 389.804,45.03 C388.795995,42.9299895 388.292,40.480014 388.292,37.68 C388.292,34.8239857 388.907994,32.2060119 390.14,29.826 C391.372006,27.4459881 393.107989,25.4160084 395.348,23.736 C397.588011,22.0559916 400.289984,20.7400048 403.454,19.788 C406.618016,18.8359952 410.103981,18.36 413.912,18.36 Z" id="À-PROPOS" opacity="0.362332589"></path>
                <path d="M40.824,24.2 C41.9440056,24.2 42.8119969,24.5079969 43.428,25.124 C44.0440031,25.7400031 44.4359992,26.3559969 44.604,26.972 L63.336,80.564 C63.3920003,80.7320008 63.42,80.9279989 63.42,81.152 C63.42,81.6560025 63.2380018,82.0899982 62.874,82.454 C62.5099982,82.8180018 62.0760025,83 61.572,83 L46.032,83 C44.9119944,83 44.1280022,82.7620024 43.68,82.286 C43.2319978,81.8099976 42.9240008,81.3480022 42.756,80.9 L40.74,75.356 L22.68,75.356 L20.664,80.9 C20.4959992,81.3480022 20.1880022,81.8099976 19.74,82.286 C19.2919978,82.7620024 18.5080056,83 17.388,83 L1.848,83 C1.34399748,83 0.91000182,82.8180018 0.546,82.454 C0.18199818,82.0899982 0,81.6560025 0,81.152 C0,80.9279989 0.02799972,80.7320008 0.084,80.564 L18.816,26.972 C18.9840008,26.3559969 19.3759969,25.7400031 19.992,25.124 C20.6080031,24.5079969 21.4759944,24.2 22.596,24.2 L40.824,24.2 Z M36.456,58.976 L31.668,43.352 L26.964,58.976 L36.456,58.976 Z M39.9,17.564 C40.1800014,17.8440014 40.32,18.2079978 40.32,18.656 C40.32,19.5520045 39.8720045,20 38.976,20 L26.628,20 C25.7319955,20 25.0320025,19.8600014 24.528,19.58 C24.0239975,19.2999986 23.5480022,18.964002 23.1,18.572 L10.752,8.408 C10.4719986,8.1279986 10.332,7.79200196 10.332,7.4 C10.332,6.2799944 10.8639947,5.72 11.928,5.72 L28.392,5.72 C29.0080031,5.72 29.5259979,5.80399916 29.946,5.972 C30.3660021,6.14000084 30.8839969,6.58799636 31.5,7.316 L39.9,17.564 Z M109.368,24.2 C113.176019,24.2 116.633984,24.6199958 119.742,25.46 C122.850016,26.3000042 125.509989,27.5739915 127.722,29.282 C129.934011,30.9900085 131.641994,33.1319871 132.846,35.708 C134.050006,38.2840129 134.652,41.3079826 134.652,44.78 C134.652,48.2520174 134.050006,51.2479874 132.846,53.768 C131.641994,56.2880126 129.934011,58.3599919 127.722,59.984 C125.509989,61.6080081 122.850016,62.7979962 119.742,63.554 C116.633984,64.3100038 113.176019,64.688 109.368,64.688 L103.488,64.688 L103.488,80.732 C103.488,81.3480031 103.264002,81.8799978 102.816,82.328 C102.367998,82.7760022 101.836003,83 101.22,83 L83.916,83 C83.2999969,83 82.7680022,82.7760022 82.32,82.328 C81.8719978,81.8799978 81.648,81.3480031 81.648,80.732 L81.648,26.468 C81.648,25.8519969 81.8719978,25.3200022 82.32,24.872 C82.7680022,24.4239978 83.2999969,24.2 83.916,24.2 L109.368,24.2 Z M103.068,49.148 L108.948,49.148 C109.844004,49.148 110.711996,48.7980035 111.552,48.098 C112.392004,47.3979965 112.812,46.2360081 112.812,44.612 C112.812,43.5479947 112.546003,42.4840053 112.014,41.42 C111.481997,40.3559947 110.460008,39.824 108.948,39.824 L103.068,39.824 L103.068,49.148 Z M194.964,80.228 C195.132001,80.5640017 195.216,80.8719986 195.216,81.152 C195.216,81.6560025 195.034002,82.0899982 194.67,82.454 C194.305998,82.8180018 193.872003,83 193.368,83 L176.148,83 C175.027994,83 174.188003,82.7200028 173.628,82.16 C173.067997,81.5999972 172.704001,81.124002 172.536,80.732 L165.312,64.688 L161.868,64.688 L161.868,80.732 C161.868,81.3480031 161.644002,81.8799978 161.196,82.328 C160.747998,82.7760022 160.216003,83 159.6,83 L143.136,83 C142.519997,83 141.988002,82.7760022 141.54,82.328 C141.091998,81.8799978 140.868,81.3480031 140.868,80.732 L140.868,26.468 C140.868,25.8519969 141.091998,25.3200022 141.54,24.872 C141.988002,24.4239978 142.519997,24.2 143.136,24.2 L168,24.2 C172.03202,24.2 175.643984,24.6619954 178.836,25.586 C182.028016,26.5100046 184.715989,27.8539912 186.9,29.618 C189.084011,31.3820088 190.763994,33.5239874 191.94,36.044 C193.116006,38.5640126 193.704,41.419984 193.704,44.612 C193.704,48.420019 192.864008,51.6959863 191.184,54.44 C189.503992,57.1840137 187.320013,59.3959916 184.632,61.076 L194.964,80.228 Z M161.868,48.728 L168,48.728 C169.288006,48.728 170.253997,48.2940043 170.898,47.426 C171.542003,46.5579957 171.864,45.5640056 171.864,44.444 C171.864,43.3239944 171.570003,42.2740049 170.982,41.294 C170.393997,40.3139951 169.400007,39.824 168,39.824 L161.868,39.824 L161.868,48.728 Z M255.696,46.376 C255.808001,48.784012 255.864,51.2759871 255.864,53.852 C255.864,56.4280129 255.808001,58.8639885 255.696,61.16 C255.527999,64.9120188 254.744007,68.2019859 253.344,71.03 C251.943993,73.8580141 250.026012,76.2239905 247.59,78.128 C245.153988,80.0320095 242.242017,81.4599952 238.854,82.412 C235.465983,83.3640048 231.72802,83.84 227.64,83.84 C223.495979,83.84 219.744017,83.3640048 216.384,82.412 C213.023983,81.4599952 210.126012,80.0320095 207.69,78.128 C205.253988,76.2239905 203.336007,73.8580141 201.936,71.03 C200.535993,68.2019859 199.752001,64.9120188 199.584,61.16 C199.471999,58.8639885 199.416,56.4280129 199.416,53.852 C199.416,51.2759871 199.471999,48.784012 199.584,46.376 C199.752001,42.6799815 200.535993,39.4040143 201.936,36.548 C203.336007,33.6919857 205.253988,31.2840098 207.69,29.324 C210.126012,27.3639902 213.023983,25.880005 216.384,24.872 C219.744017,23.863995 223.495979,23.36 227.64,23.36 C231.72802,23.36 235.465983,23.863995 238.854,24.872 C242.242017,25.880005 245.153988,27.3639902 247.59,29.324 C250.026012,31.2840098 251.943993,33.6919857 253.344,36.548 C254.744007,39.4040143 255.527999,42.6799815 255.696,46.376 Z M221.424,60.656 C221.536001,63.0080118 222.137995,64.7299945 223.23,65.822 C224.322005,66.9140055 225.791991,67.46 227.64,67.46 C229.488009,67.46 230.957995,66.9140055 232.05,65.822 C233.142005,64.7299945 233.743999,63.0080118 233.856,60.656 C234.024001,55.8959762 234.024001,51.1920232 233.856,46.544 C233.743999,44.1919882 233.128006,42.4700055 232.008,41.378 C230.887994,40.2859945 229.432009,39.74 227.64,39.74 C225.847991,39.74 224.392006,40.2859945 223.272,41.378 C222.151994,42.4700055 221.536001,44.1919882 221.424,46.544 C221.255999,51.1920232 221.255999,55.8959762 221.424,60.656 Z M291.144,24.2 C294.952019,24.2 298.409984,24.6199958 301.518,25.46 C304.626016,26.3000042 307.285989,27.5739915 309.498,29.282 C311.710011,30.9900085 313.417994,33.1319871 314.622,35.708 C315.826006,38.2840129 316.428,41.3079826 316.428,44.78 C316.428,48.2520174 315.826006,51.2479874 314.622,53.768 C313.417994,56.2880126 311.710011,58.3599919 309.498,59.984 C307.285989,61.6080081 304.626016,62.7979962 301.518,63.554 C298.409984,64.3100038 294.952019,64.688 291.144,64.688 L285.264,64.688 L285.264,80.732 C285.264,81.3480031 285.040002,81.8799978 284.592,82.328 C284.143998,82.7760022 283.612003,83 282.996,83 L265.692,83 C265.075997,83 264.544002,82.7760022 264.096,82.328 C263.647998,81.8799978 263.424,81.3480031 263.424,80.732 L263.424,26.468 C263.424,25.8519969 263.647998,25.3200022 264.096,24.872 C264.544002,24.4239978 265.075997,24.2 265.692,24.2 L291.144,24.2 Z M284.844,49.148 L290.724,49.148 C291.620004,49.148 292.487996,48.7980035 293.328,48.098 C294.168004,47.3979965 294.588,46.2360081 294.588,44.612 C294.588,43.5479947 294.322003,42.4840053 293.79,41.42 C293.257997,40.3559947 292.236008,39.824 290.724,39.824 L284.844,39.824 L284.844,49.148 Z M377.244,46.376 C377.356001,48.784012 377.412,51.2759871 377.412,53.852 C377.412,56.4280129 377.356001,58.8639885 377.244,61.16 C377.075999,64.9120188 376.292007,68.2019859 374.892,71.03 C373.491993,73.8580141 371.574012,76.2239905 369.138,78.128 C366.701988,80.0320095 363.790017,81.4599952 360.402,82.412 C357.013983,83.3640048 353.27602,83.84 349.188,83.84 C345.043979,83.84 341.292017,83.3640048 337.932,82.412 C334.571983,81.4599952 331.674012,80.0320095 329.238,78.128 C326.801988,76.2239905 324.884007,73.8580141 323.484,71.03 C322.083993,68.2019859 321.300001,64.9120188 321.132,61.16 C321.019999,58.8639885 320.964,56.4280129 320.964,53.852 C320.964,51.2759871 321.019999,48.784012 321.132,46.376 C321.300001,42.6799815 322.083993,39.4040143 323.484,36.548 C324.884007,33.6919857 326.801988,31.2840098 329.238,29.324 C331.674012,27.3639902 334.571983,25.880005 337.932,24.872 C341.292017,23.863995 345.043979,23.36 349.188,23.36 C353.27602,23.36 357.013983,23.863995 360.402,24.872 C363.790017,25.880005 366.701988,27.3639902 369.138,29.324 C371.574012,31.2840098 373.491993,33.6919857 374.892,36.548 C376.292007,39.4040143 377.075999,42.6799815 377.244,46.376 Z M342.972,60.656 C343.084001,63.0080118 343.685995,64.7299945 344.778,65.822 C345.870005,66.9140055 347.339991,67.46 349.188,67.46 C351.036009,67.46 352.505995,66.9140055 353.598,65.822 C354.690005,64.7299945 355.291999,63.0080118 355.404,60.656 C355.572001,55.8959762 355.572001,51.1920232 355.404,46.544 C355.291999,44.1919882 354.676006,42.4700055 353.556,41.378 C352.435994,40.2859945 350.980009,39.74 349.188,39.74 C347.395991,39.74 345.940006,40.2859945 344.82,41.378 C343.699994,42.4700055 343.084001,44.1919882 342.972,46.544 C342.803999,51.1920232 342.803999,55.8959762 342.972,60.656 Z M408.912,23.36 C413.112021,23.36 416.835984,23.9199944 420.084,25.04 C423.332016,26.1600056 426.075989,27.5879913 428.316,29.324 C430.556011,31.0600087 432.263994,32.9359899 433.44,34.952 C434.616006,36.9680101 435.232,38.8999908 435.288,40.748 C435.288,41.2520025 435.106002,41.6859982 434.742,42.05 C434.377998,42.4140018 433.972002,42.596 433.524,42.596 L416.724,42.596 C415.939996,42.596 415.310002,42.4840011 414.834,42.26 C414.357998,42.0359989 413.868003,41.7000022 413.364,41.252 C413.083999,40.9719986 412.566004,40.6500018 411.81,40.286 C411.053996,39.9219982 410.088006,39.74 408.912,39.74 C407.455993,39.74 406.420003,39.9499979 405.804,40.37 C405.187997,40.7900021 404.88,41.3639964 404.88,42.092 C404.88,42.484002 405.005999,42.8479983 405.258,43.184 C405.510001,43.5200017 405.985997,43.8419985 406.686,44.15 C407.386004,44.4580015 408.337994,44.7379987 409.542,44.99 C410.746006,45.2420013 412.29999,45.4799989 414.204,45.704 C418.404021,46.2080025 421.973985,46.9359952 424.914,47.888 C427.854015,48.8400048 430.247991,50.0579926 432.096,51.542 C433.944009,53.0260074 435.287996,54.7899898 436.128,56.834 C436.968004,58.8780102 437.388,61.2719863 437.388,64.016 C437.388,67.0960154 436.674007,69.8539878 435.246,72.29 C433.817993,74.7260122 431.858012,76.7979915 429.366,78.506 C426.873988,80.2140085 423.934017,81.5299954 420.546,82.454 C417.157983,83.3780046 413.47602,83.84 409.5,83.84 C404.851977,83.84 400.806017,83.3500049 397.362,82.37 C393.917983,81.3899951 391.062011,80.0740083 388.794,78.422 C386.525989,76.7699917 384.818006,74.8660108 383.67,72.71 C382.521994,70.5539892 381.92,68.3000118 381.864,65.948 C381.864,65.4439975 382.045998,65.0100018 382.41,64.646 C382.774002,64.2819982 383.207997,64.1 383.712,64.1 L399.672,64.1 C400.568004,64.1 401.239998,64.2259987 401.688,64.478 C402.136002,64.7300013 402.667997,65.0799978 403.284,65.528 C404.068004,66.1440031 404.949995,66.6199983 405.93,66.956 C406.910005,67.2920017 408.099993,67.46 409.5,67.46 C411.40401,67.46 412.929994,67.264002 414.078,66.872 C415.226006,66.479998 415.8,65.8920039 415.8,65.108 C415.8,64.099995 415.030008,63.3300027 413.49,62.798 C411.949992,62.2659973 409.108021,61.7200028 404.964,61.16 C401.659983,60.7119978 398.664013,60.0260046 395.976,59.102 C393.287987,58.1779954 391.006009,56.9600076 389.13,55.448 C387.253991,53.9359924 385.812005,52.1300105 384.804,50.03 C383.795995,47.9299895 383.292,45.480014 383.292,42.68 C383.292,39.8239857 383.907994,37.2060119 385.14,34.826 C386.372006,32.4459881 388.107989,30.4160084 390.348,28.736 C392.588011,27.0559916 395.289984,25.7400048 398.454,24.788 C401.618016,23.8359952 405.103981,23.36 408.912,23.36 Z" id="À-PROPOS"></path>
            </g>
        </g>
    </g>
</svg>