<svg width="487" height="103" viewBox="0 0 487 103" fill="none" xmlns="http://www.w3.org/2000/svg">
<path d="M10.806 77C10.1973 77 9.67167 76.7787 9.229 76.336C8.78633 75.8933 8.565 75.3677 8.565 74.759V21.141C8.565 20.5323 8.78633 20.0067 9.229 19.564C9.67167 19.1213 10.1973 18.9 10.806 18.9H23.92C25.0267 18.9 25.8567 19.2043 26.41 19.813C26.9633 20.4217 27.323 20.8643 27.489 21.141L39.524 41.061L51.559 21.141C51.725 20.8643 52.0847 20.4217 52.638 19.813C53.1913 19.2043 54.0213 18.9 55.128 18.9H68.242C68.8507 18.9 69.3763 19.1213 69.819 19.564C70.2617 20.0067 70.483 20.5323 70.483 21.141V74.759C70.483 75.3677 70.2617 75.8933 69.819 76.336C69.3763 76.7787 68.8507 77 68.242 77H53.219C52.6103 77 52.0847 76.7787 51.642 76.336C51.1993 75.8933 50.978 75.3677 50.978 74.759V52.017L45.5 60.981C45.2233 61.4237 44.836 61.894 44.338 62.392C43.8953 62.8347 43.259 63.056 42.429 63.056H36.619C35.789 63.056 35.125 62.8347 34.627 62.392C34.1843 61.894 33.8247 61.4237 33.548 60.981L28.07 52.017V74.759C28.07 75.3677 27.8487 75.8933 27.406 76.336C26.9633 76.7787 26.4377 77 25.829 77H10.806ZM81.891 77C81.2823 77 80.7566 76.7787 80.314 76.336C79.8713 75.8933 79.65 75.3677 79.65 74.759V21.141C79.65 20.5323 79.8713 20.0067 80.314 19.564C80.7566 19.1213 81.2823 18.9 81.891 18.9H124.47C125.079 18.9 125.604 19.1213 126.047 19.564C126.49 20.0067 126.711 20.5323 126.711 21.141V32.844C126.711 33.4527 126.49 33.9783 126.047 34.421C125.604 34.8637 125.079 35.085 124.47 35.085H99.57V40.314H122.644C123.253 40.314 123.778 40.5353 124.221 40.978C124.664 41.4207 124.885 41.9463 124.885 42.555V53.345C124.885 53.9537 124.664 54.4793 124.221 54.922C123.778 55.3647 123.253 55.586 122.644 55.586H99.57V60.815H125.134C125.743 60.815 126.268 61.0363 126.711 61.479C127.154 61.9217 127.375 62.4473 127.375 63.056V74.759C127.375 75.3677 127.154 75.8933 126.711 76.336C126.268 76.7787 125.743 77 125.134 77H81.891ZM95.088 14.75C94.2026 14.75 93.76 14.3073 93.76 13.422C93.76 12.9793 93.8983 12.6197 94.175 12.343L102.475 2.217C103.084 1.49766 103.582 1.055 103.969 0.888995C104.412 0.722998 104.937 0.639999 105.546 0.639999H121.814C122.865 0.639999 123.391 1.19333 123.391 2.3C123.391 2.68733 123.253 3.01933 122.976 3.29599L110.775 13.339C110.332 13.7263 109.862 14.0583 109.364 14.335C108.866 14.6117 108.174 14.75 107.289 14.75H95.088ZM150.116 77C149.508 77 148.982 76.7787 148.539 76.336C148.097 75.8933 147.875 75.3677 147.875 74.759V36.745H134.097C133.489 36.745 132.963 36.5237 132.52 36.081C132.078 35.6383 131.856 35.1127 131.856 34.504V21.141C131.856 20.5323 132.078 20.0067 132.52 19.564C132.963 19.1213 133.489 18.9 134.097 18.9H182.735C183.344 18.9 183.87 19.1213 184.312 19.564C184.755 20.0067 184.976 20.5323 184.976 21.141V34.504C184.976 35.1127 184.755 35.6383 184.312 36.081C183.87 36.5237 183.344 36.745 182.735 36.745H168.957V74.759C168.957 75.3677 168.736 75.8933 168.293 76.336C167.851 76.7787 167.325 77 166.716 77H150.116ZM193.179 77C192.57 77 192.045 76.8063 191.602 76.419C191.159 75.9763 190.938 75.423 190.938 74.759V21.141C190.938 20.5323 191.159 20.0067 191.602 19.564C192.045 19.1213 192.57 18.9 193.179 18.9H209.447C210.056 18.9 210.581 19.1213 211.024 19.564C211.467 20.0067 211.688 20.5323 211.688 21.141V38.571H225.134V21.141C225.134 20.5323 225.355 20.0067 225.798 19.564C226.241 19.1213 226.766 18.9 227.375 18.9H243.643C244.252 18.9 244.777 19.1213 245.22 19.564C245.663 20.0067 245.884 20.5323 245.884 21.141V74.759C245.884 75.3677 245.663 75.8933 245.22 76.336C244.777 76.7787 244.252 77 243.643 77H227.375C226.766 77 226.241 76.7787 225.798 76.336C225.355 75.8933 225.134 75.3677 225.134 74.759V56.831H211.688V74.759C211.688 75.3677 211.467 75.8933 211.024 76.336C210.581 76.7787 210.056 77 209.447 77H193.179ZM281.28 77.83C275.858 77.83 271.099 77 267.004 75.34C262.965 73.68 259.756 71.19 257.376 67.87C255.052 64.4947 253.78 60.3447 253.558 55.42C253.503 53.1513 253.475 50.7443 253.475 48.199C253.475 45.6537 253.503 43.1913 253.558 40.812C253.78 35.9427 255.052 31.8203 257.376 28.445C259.7 25.0697 262.91 22.4967 267.004 20.726C271.099 18.9553 275.858 18.07 281.28 18.07C286.703 18.07 291.462 18.9553 295.556 20.726C299.651 22.4967 302.86 25.0697 305.184 28.445C307.564 31.8203 308.836 35.9427 309.002 40.812C309.113 43.1913 309.168 45.6537 309.168 48.199C309.168 50.7443 309.113 53.1513 309.002 55.42C308.781 60.3447 307.481 64.4947 305.101 67.87C302.777 71.19 299.568 73.68 295.473 75.34C291.434 77 286.703 77.83 281.28 77.83ZM281.28 61.645C283.106 61.645 284.573 61.1193 285.679 60.068C286.786 58.9613 287.367 57.246 287.422 54.922C287.533 52.5427 287.588 50.191 287.588 47.867C287.588 45.543 287.533 43.2467 287.422 40.978C287.367 39.4287 287.063 38.156 286.509 37.16C286.011 36.164 285.32 35.4447 284.434 35.002C283.549 34.504 282.498 34.255 281.28 34.255C280.118 34.255 279.067 34.504 278.126 35.002C277.241 35.4447 276.522 36.164 275.968 37.16C275.47 38.156 275.194 39.4287 275.138 40.978C275.083 43.2467 275.055 45.543 275.055 47.867C275.055 50.191 275.083 52.5427 275.138 54.922C275.249 57.246 275.83 58.9613 276.881 60.068C277.988 61.1193 279.454 61.645 281.28 61.645ZM318.895 77C318.286 77 317.761 76.7787 317.318 76.336C316.875 75.8933 316.654 75.3677 316.654 74.759V21.141C316.654 20.5323 316.875 20.0067 317.318 19.564C317.761 19.1213 318.286 18.9 318.895 18.9H342.799C348 18.9 352.648 19.7853 356.743 21.556C360.838 23.2713 364.102 25.8167 366.537 29.192C369.027 32.5673 370.355 36.745 370.521 41.725C370.632 44.1043 370.687 46.207 370.687 48.033C370.687 49.8037 370.632 51.8233 370.521 54.092C370.3 59.2933 369.027 63.6093 366.703 67.04C364.379 70.4153 361.197 72.933 357.158 74.593C353.174 76.1977 348.526 77 343.214 77H318.895ZM337.404 60.815H342.799C344.016 60.815 345.095 60.5937 346.036 60.151C347.032 59.653 347.834 58.906 348.443 57.91C349.052 56.914 349.384 55.6413 349.439 54.092C349.55 52.4873 349.605 51.0487 349.605 49.776C349.66 48.5033 349.66 47.2307 349.605 45.958C349.605 44.63 349.55 43.219 349.439 41.725C349.328 39.401 348.581 37.7133 347.198 36.662C345.87 35.6107 344.265 35.085 342.384 35.085H337.404V60.815ZM380.334 77C379.726 77 379.2 76.7787 378.757 76.336C378.315 75.8933 378.093 75.3677 378.093 74.759V21.141C378.093 20.5323 378.315 20.0067 378.757 19.564C379.2 19.1213 379.726 18.9 380.334 18.9H422.913C423.522 18.9 424.048 19.1213 424.49 19.564C424.933 20.0067 425.154 20.5323 425.154 21.141V32.844C425.154 33.4527 424.933 33.9783 424.49 34.421C424.048 34.8637 423.522 35.085 422.913 35.085H398.013V40.314H421.087C421.696 40.314 422.222 40.5353 422.664 40.978C423.107 41.4207 423.328 41.9463 423.328 42.555V53.345C423.328 53.9537 423.107 54.4793 422.664 54.922C422.222 55.3647 421.696 55.586 421.087 55.586H398.013V60.815H423.577C424.186 60.815 424.712 61.0363 425.154 61.479C425.597 61.9217 425.818 62.4473 425.818 63.056V74.759C425.818 75.3677 425.597 75.8933 425.154 76.336C424.712 76.7787 424.186 77 423.577 77H380.334ZM457.69 77.83C451.548 77.83 446.485 77 442.501 75.34C438.517 73.68 435.529 71.4943 433.537 68.783C431.545 66.0717 430.493 63.1943 430.383 60.151C430.383 59.653 430.549 59.238 430.881 58.906C431.268 58.5187 431.711 58.325 432.209 58.325H447.979C448.864 58.325 449.528 58.4633 449.971 58.74C450.469 58.9613 450.994 59.2933 451.548 59.736C452.101 60.1233 452.654 60.483 453.208 60.815C453.816 61.0917 454.48 61.313 455.2 61.479C455.974 61.5897 456.804 61.645 457.69 61.645C459.571 61.645 461.065 61.4513 462.172 61.064C463.334 60.6213 463.915 60.0403 463.915 59.321C463.915 58.657 463.583 58.1037 462.919 57.661C462.31 57.2183 461.231 56.831 459.682 56.499C458.132 56.1117 455.974 55.752 453.208 55.42C448.836 54.8113 445.046 53.7877 441.837 52.349C438.627 50.9103 436.137 48.946 434.367 46.456C432.651 43.9107 431.794 40.812 431.794 37.16C431.794 33.3973 432.845 30.0773 434.948 27.2C437.106 24.3227 440.066 22.0817 443.829 20.477C447.647 18.8723 452.073 18.07 457.109 18.07C461.259 18.07 464.938 18.6233 468.148 19.73C471.357 20.7813 474.068 22.1923 476.282 23.963C478.495 25.6783 480.183 27.532 481.345 29.524C482.507 31.516 483.115 33.425 483.171 35.251C483.171 35.749 482.977 36.1917 482.59 36.579C482.258 36.911 481.87 37.077 481.428 37.077H464.828C464.053 37.077 463.417 36.9663 462.919 36.745C462.476 36.5237 462.006 36.1917 461.508 35.749C461.231 35.4723 460.705 35.168 459.931 34.836C459.211 34.4487 458.271 34.255 457.109 34.255C455.725 34.255 454.702 34.4763 454.038 34.919C453.429 35.3063 453.125 35.8597 453.125 36.579C453.125 37.077 453.374 37.5473 453.872 37.99C454.37 38.4327 455.283 38.82 456.611 39.152C457.939 39.484 459.848 39.816 462.338 40.148C467.871 40.812 472.298 41.891 475.618 43.385C478.993 44.8237 481.428 46.7603 482.922 49.195C484.471 51.6297 485.246 54.6453 485.246 58.242C485.246 62.2813 484.028 65.7673 481.594 68.7C479.214 71.6327 475.95 73.9013 471.8 75.506C467.65 77.0553 462.946 77.83 457.69 77.83Z" fill="#797979"/>
<path d="M6.806 82C6.19733 82 5.67167 81.7787 5.229 81.336C4.78633 80.8933 4.565 80.3677 4.565 79.759V26.141C4.565 25.5323 4.78633 25.0067 5.229 24.564C5.67167 24.1213 6.19733 23.9 6.806 23.9H19.92C21.0267 23.9 21.8567 24.2043 22.41 24.813C22.9633 25.4217 23.323 25.8643 23.489 26.141L35.524 46.061L47.559 26.141C47.725 25.8643 48.0847 25.4217 48.638 24.813C49.1913 24.2043 50.0213 23.9 51.128 23.9H64.242C64.8507 23.9 65.3763 24.1213 65.819 24.564C66.2617 25.0067 66.483 25.5323 66.483 26.141V79.759C66.483 80.3677 66.2617 80.8933 65.819 81.336C65.3763 81.7787 64.8507 82 64.242 82H49.219C48.6103 82 48.0847 81.7787 47.642 81.336C47.1993 80.8933 46.978 80.3677 46.978 79.759V57.017L41.5 65.981C41.2233 66.4237 40.836 66.894 40.338 67.392C39.8953 67.8347 39.259 68.056 38.429 68.056H32.619C31.789 68.056 31.125 67.8347 30.627 67.392C30.1843 66.894 29.8247 66.4237 29.548 65.981L24.07 57.017V79.759C24.07 80.3677 23.8487 80.8933 23.406 81.336C22.9633 81.7787 22.4377 82 21.829 82H6.806ZM77.891 82C77.2823 82 76.7566 81.7787 76.314 81.336C75.8713 80.8933 75.65 80.3677 75.65 79.759V26.141C75.65 25.5323 75.8713 25.0067 76.314 24.564C76.7566 24.1213 77.2823 23.9 77.891 23.9H120.47C121.079 23.9 121.604 24.1213 122.047 24.564C122.49 25.0067 122.711 25.5323 122.711 26.141V37.844C122.711 38.4527 122.49 38.9783 122.047 39.421C121.604 39.8637 121.079 40.085 120.47 40.085H95.57V45.314H118.644C119.253 45.314 119.778 45.5353 120.221 45.978C120.664 46.4207 120.885 46.9463 120.885 47.555V58.345C120.885 58.9537 120.664 59.4793 120.221 59.922C119.778 60.3647 119.253 60.586 118.644 60.586H95.57V65.815H121.134C121.743 65.815 122.268 66.0363 122.711 66.479C123.154 66.9217 123.375 67.4473 123.375 68.056V79.759C123.375 80.3677 123.154 80.8933 122.711 81.336C122.268 81.7787 121.743 82 121.134 82H77.891ZM91.088 19.75C90.2026 19.75 89.76 19.3073 89.76 18.422C89.76 17.9793 89.8983 17.6197 90.175 17.343L98.475 7.217C99.0836 6.49766 99.5816 6.055 99.969 5.889C100.412 5.723 100.937 5.64 101.546 5.64H117.814C118.865 5.64 119.391 6.19333 119.391 7.3C119.391 7.68733 119.253 8.01933 118.976 8.29599L106.775 18.339C106.332 18.7263 105.862 19.0583 105.364 19.335C104.866 19.6117 104.174 19.75 103.289 19.75H91.088ZM146.116 82C145.508 82 144.982 81.7787 144.539 81.336C144.097 80.8933 143.875 80.3677 143.875 79.759V41.745H130.097C129.489 41.745 128.963 41.5237 128.52 41.081C128.078 40.6383 127.856 40.1127 127.856 39.504V26.141C127.856 25.5323 128.078 25.0067 128.52 24.564C128.963 24.1213 129.489 23.9 130.097 23.9H178.735C179.344 23.9 179.87 24.1213 180.312 24.564C180.755 25.0067 180.976 25.5323 180.976 26.141V39.504C180.976 40.1127 180.755 40.6383 180.312 41.081C179.87 41.5237 179.344 41.745 178.735 41.745H164.957V79.759C164.957 80.3677 164.736 80.8933 164.293 81.336C163.851 81.7787 163.325 82 162.716 82H146.116ZM189.179 82C188.57 82 188.045 81.8063 187.602 81.419C187.159 80.9763 186.938 80.423 186.938 79.759V26.141C186.938 25.5323 187.159 25.0067 187.602 24.564C188.045 24.1213 188.57 23.9 189.179 23.9H205.447C206.056 23.9 206.581 24.1213 207.024 24.564C207.467 25.0067 207.688 25.5323 207.688 26.141V43.571H221.134V26.141C221.134 25.5323 221.355 25.0067 221.798 24.564C222.241 24.1213 222.766 23.9 223.375 23.9H239.643C240.252 23.9 240.777 24.1213 241.22 24.564C241.663 25.0067 241.884 25.5323 241.884 26.141V79.759C241.884 80.3677 241.663 80.8933 241.22 81.336C240.777 81.7787 240.252 82 239.643 82H223.375C222.766 82 222.241 81.7787 221.798 81.336C221.355 80.8933 221.134 80.3677 221.134 79.759V61.831H207.688V79.759C207.688 80.3677 207.467 80.8933 207.024 81.336C206.581 81.7787 206.056 82 205.447 82H189.179ZM277.28 82.83C271.858 82.83 267.099 82 263.004 80.34C258.965 78.68 255.756 76.19 253.376 72.87C251.052 69.4947 249.78 65.3447 249.558 60.42C249.503 58.1513 249.475 55.7443 249.475 53.199C249.475 50.6537 249.503 48.1913 249.558 45.812C249.78 40.9427 251.052 36.8203 253.376 33.445C255.7 30.0697 258.91 27.4967 263.004 25.726C267.099 23.9553 271.858 23.07 277.28 23.07C282.703 23.07 287.462 23.9553 291.556 25.726C295.651 27.4967 298.86 30.0697 301.184 33.445C303.564 36.8203 304.836 40.9427 305.002 45.812C305.113 48.1913 305.168 50.6537 305.168 53.199C305.168 55.7443 305.113 58.1513 305.002 60.42C304.781 65.3447 303.481 69.4947 301.101 72.87C298.777 76.19 295.568 78.68 291.473 80.34C287.434 82 282.703 82.83 277.28 82.83ZM277.28 66.645C279.106 66.645 280.573 66.1193 281.679 65.068C282.786 63.9613 283.367 62.246 283.422 59.922C283.533 57.5427 283.588 55.191 283.588 52.867C283.588 50.543 283.533 48.2467 283.422 45.978C283.367 44.4287 283.063 43.156 282.509 42.16C282.011 41.164 281.32 40.4447 280.434 40.002C279.549 39.504 278.498 39.255 277.28 39.255C276.118 39.255 275.067 39.504 274.126 40.002C273.241 40.4447 272.522 41.164 271.968 42.16C271.47 43.156 271.194 44.4287 271.138 45.978C271.083 48.2467 271.055 50.543 271.055 52.867C271.055 55.191 271.083 57.5427 271.138 59.922C271.249 62.246 271.83 63.9613 272.881 65.068C273.988 66.1193 275.454 66.645 277.28 66.645ZM314.895 82C314.286 82 313.761 81.7787 313.318 81.336C312.875 80.8933 312.654 80.3677 312.654 79.759V26.141C312.654 25.5323 312.875 25.0067 313.318 24.564C313.761 24.1213 314.286 23.9 314.895 23.9H338.799C344 23.9 348.648 24.7853 352.743 26.556C356.838 28.2713 360.102 30.8167 362.537 34.192C365.027 37.5673 366.355 41.745 366.521 46.725C366.632 49.1043 366.687 51.207 366.687 53.033C366.687 54.8037 366.632 56.8233 366.521 59.092C366.3 64.2933 365.027 68.6093 362.703 72.04C360.379 75.4153 357.197 77.933 353.158 79.593C349.174 81.1977 344.526 82 339.214 82H314.895ZM333.404 65.815H338.799C340.016 65.815 341.095 65.5937 342.036 65.151C343.032 64.653 343.834 63.906 344.443 62.91C345.052 61.914 345.384 60.6413 345.439 59.092C345.55 57.4873 345.605 56.0487 345.605 54.776C345.66 53.5033 345.66 52.2307 345.605 50.958C345.605 49.63 345.55 48.219 345.439 46.725C345.328 44.401 344.581 42.7133 343.198 41.662C341.87 40.6107 340.265 40.085 338.384 40.085H333.404V65.815ZM376.334 82C375.726 82 375.2 81.7787 374.757 81.336C374.315 80.8933 374.093 80.3677 374.093 79.759V26.141C374.093 25.5323 374.315 25.0067 374.757 24.564C375.2 24.1213 375.726 23.9 376.334 23.9H418.913C419.522 23.9 420.048 24.1213 420.49 24.564C420.933 25.0067 421.154 25.5323 421.154 26.141V37.844C421.154 38.4527 420.933 38.9783 420.49 39.421C420.048 39.8637 419.522 40.085 418.913 40.085H394.013V45.314H417.087C417.696 45.314 418.222 45.5353 418.664 45.978C419.107 46.4207 419.328 46.9463 419.328 47.555V58.345C419.328 58.9537 419.107 59.4793 418.664 59.922C418.222 60.3647 417.696 60.586 417.087 60.586H394.013V65.815H419.577C420.186 65.815 420.712 66.0363 421.154 66.479C421.597 66.9217 421.818 67.4473 421.818 68.056V79.759C421.818 80.3677 421.597 80.8933 421.154 81.336C420.712 81.7787 420.186 82 419.577 82H376.334ZM453.69 82.83C447.548 82.83 442.485 82 438.501 80.34C434.517 78.68 431.529 76.4943 429.537 73.783C427.545 71.0717 426.493 68.1943 426.383 65.151C426.383 64.653 426.549 64.238 426.881 63.906C427.268 63.5187 427.711 63.325 428.209 63.325H443.979C444.864 63.325 445.528 63.4633 445.971 63.74C446.469 63.9613 446.994 64.2933 447.548 64.736C448.101 65.1233 448.654 65.483 449.208 65.815C449.816 66.0917 450.48 66.313 451.2 66.479C451.974 66.5897 452.804 66.645 453.69 66.645C455.571 66.645 457.065 66.4513 458.172 66.064C459.334 65.6213 459.915 65.0403 459.915 64.321C459.915 63.657 459.583 63.1037 458.919 62.661C458.31 62.2183 457.231 61.831 455.682 61.499C454.132 61.1117 451.974 60.752 449.208 60.42C444.836 59.8113 441.046 58.7877 437.837 57.349C434.627 55.9103 432.137 53.946 430.367 51.456C428.651 48.9107 427.794 45.812 427.794 42.16C427.794 38.3973 428.845 35.0773 430.948 32.2C433.106 29.3227 436.066 27.0817 439.829 25.477C443.647 23.8723 448.073 23.07 453.109 23.07C457.259 23.07 460.938 23.6233 464.148 24.73C467.357 25.7813 470.068 27.1923 472.282 28.963C474.495 30.6783 476.183 32.532 477.345 34.524C478.507 36.516 479.115 38.425 479.171 40.251C479.171 40.749 478.977 41.1917 478.59 41.579C478.258 41.911 477.87 42.077 477.428 42.077H460.828C460.053 42.077 459.417 41.9663 458.919 41.745C458.476 41.5237 458.006 41.1917 457.508 40.749C457.231 40.4723 456.705 40.168 455.931 39.836C455.211 39.4487 454.271 39.255 453.109 39.255C451.725 39.255 450.702 39.4763 450.038 39.919C449.429 40.3063 449.125 40.8597 449.125 41.579C449.125 42.077 449.374 42.5473 449.872 42.99C450.37 43.4327 451.283 43.82 452.611 44.152C453.939 44.484 455.848 44.816 458.338 45.148C463.871 45.812 468.298 46.891 471.618 48.385C474.993 49.8237 477.428 51.7603 478.922 54.195C480.471 56.6297 481.246 59.6453 481.246 63.242C481.246 67.2813 480.028 70.7673 477.594 73.7C475.214 76.6327 471.95 78.9013 467.8 80.506C463.65 82.0553 458.946 82.83 453.69 82.83Z" fill="#1E1E1E"/>
</svg>
