<?xml version="1.0" encoding="UTF-8"?>
<svg width="236px" height="185px" viewBox="0 0 236 185" version="1.1" xmlns="http://www.w3.org/2000/svg" xmlns:xlink="http://www.w3.org/1999/xlink">
    <!-- Generator: Sketch 51.3 (57544) - http://www.bohemiancoding.com/sketch -->
    <title>blog_placeholder</title>
    <desc>Created with Sketch.</desc>
    <defs></defs>
    <g id="Page-1" stroke="none" stroke-width="1" fill="none" fill-rule="evenodd">
        <g id="À-propos" transform="translate(-315.000000, -413.000000)">
            <g id="blog_placeholder" transform="translate(315.000000, 413.000000)">
                <rect id="Rectangle" fill="#F5F5F5" x="0" y="122" width="236" height="63" rx="20"></rect>
                <rect id="Rectangle" fill="#F5F5F5" x="103" y="80" width="30" height="30" rx="15"></rect>
                <rect id="Rectangle" fill="#F5F5F5" x="103" y="40" width="30" height="30" rx="15"></rect>
                <rect id="Rectangle" fill="#F5F5F5" x="103" y="0" width="30" height="30" rx="15"></rect>
                <path d="M68.54,164.9 C68.3933326,164.9 68.2666672,164.846667 68.16,164.74 C68.0533328,164.633333 68,164.506667 68,164.36 L68,151.44 C68,151.293333 68.0533328,151.166667 68.16,151.06 C68.2666672,150.953333 68.3933326,150.9 68.54,150.9 L74.44,150.9 C75.2933376,150.9 76.0066638,151.029999 76.58,151.29 C77.1533362,151.550001 77.6133316,151.876665 77.96,152.27 C78.3066684,152.663335 78.5566659,153.089998 78.71,153.55 C78.8633341,154.010002 78.94,154.439998 78.94,154.84 C78.94,155.240002 78.8866672,155.596665 78.78,155.91 C78.6733328,156.223335 78.5433341,156.489999 78.39,156.71 C78.2366659,156.930001 78.0833341,157.113333 77.93,157.26 C77.7766659,157.406667 77.6533338,157.506666 77.56,157.56 C77.9733354,157.840001 78.3533316,158.236664 78.7,158.75 C79.0466684,159.263336 79.22,159.913329 79.22,160.7 C79.22,161.206669 79.1266676,161.709998 78.94,162.21 C78.7533324,162.710003 78.4800018,163.159998 78.12,163.56 C77.7599982,163.960002 77.3100027,164.283332 76.77,164.53 C76.2299973,164.776668 75.6066702,164.9 74.9,164.9 L68.54,164.9 Z M76.24,154.94 C76.24,154.433331 76.0800016,154.050001 75.76,153.79 C75.4399984,153.529999 74.9333368,153.4 74.24,153.4 L70.7,153.4 L70.7,156.48 L74.24,156.48 C74.9333368,156.48 75.4399984,156.350001 75.76,156.09 C76.0800016,155.829999 76.24,155.446669 76.24,154.94 Z M70.7,162.4 L74.4,162.4 C75.133337,162.4 75.6699983,162.243335 76.01,161.93 C76.3500017,161.616665 76.52,161.206669 76.52,160.7 C76.52,160.193331 76.3433351,159.780002 75.99,159.46 C75.6366649,159.139998 75.1066702,158.98 74.4,158.98 L70.7,158.98 L70.7,162.4 Z M84.14,164.36 C84.14,164.506667 84.0866672,164.633333 83.98,164.74 C83.8733328,164.846667 83.7466674,164.9 83.6,164.9 L82.08,164.9 C81.9333326,164.9 81.8066672,164.846667 81.7,164.74 C81.5933328,164.633333 81.54,164.506667 81.54,164.36 L81.54,155.04 C81.54,154.893333 81.5933328,154.766667 81.7,154.66 C81.8066672,154.553333 81.9333326,154.5 82.08,154.5 L83.6,154.5 C83.7466674,154.5 83.8733328,154.553333 83.98,154.66 C84.0866672,154.766667 84.14,154.893333 84.14,155.04 L84.14,164.36 Z M83.7,150.7 C83.8466674,150.7 83.9733328,150.753333 84.08,150.86 C84.1866672,150.966667 84.24,151.093333 84.24,151.24 L84.24,152.8 C84.24,152.946667 84.1866672,153.073333 84.08,153.18 C83.9733328,153.286667 83.8466674,153.34 83.7,153.34 L81.98,153.34 C81.8333326,153.34 81.7066672,153.286667 81.6,153.18 C81.4933328,153.073333 81.44,152.946667 81.44,152.8 L81.44,151.24 C81.44,151.093333 81.4933328,150.966667 81.6,150.86 C81.7066672,150.753333 81.8333326,150.7 81.98,150.7 L83.7,150.7 Z M86.38,159.7 C86.38,158.95333 86.4933322,158.250003 86.72,157.59 C86.9466678,156.929997 87.2733312,156.356669 87.7,155.87 C88.1266688,155.383331 88.6433303,155.000001 89.25,154.72 C89.8566697,154.439999 90.5333296,154.3 91.28,154.3 C92.0266704,154.3 92.7033303,154.436665 93.31,154.71 C93.9166697,154.983335 94.4333312,155.349998 94.86,155.81 C95.2866688,156.270002 95.6166655,156.809997 95.85,157.43 C96.0833345,158.050003 96.2,158.699997 96.2,159.38 L96.2,160.28 C96.2,160.426667 96.1466672,160.553333 96.04,160.66 C95.9333328,160.766667 95.8066674,160.82 95.66,160.82 L88.98,160.82 C88.98,161.126668 89.0433327,161.396666 89.17,161.63 C89.2966673,161.863335 89.4666656,162.059999 89.68,162.22 C89.8933344,162.380001 90.1399986,162.5 90.42,162.58 C90.7000014,162.66 90.9866652,162.7 91.28,162.7 C91.7066688,162.7 92.053332,162.656667 92.32,162.57 C92.586668,162.483333 92.8066658,162.373334 92.98,162.24 C93.1266674,162.133333 93.2466662,162.06 93.34,162.02 C93.4333338,161.98 93.5599992,161.96 93.72,161.96 L95.32,161.96 C95.4666674,161.96 95.5966661,162.013333 95.71,162.12 C95.8233339,162.226667 95.8733334,162.353333 95.86,162.5 C95.8466666,162.686668 95.7433343,162.926665 95.55,163.22 C95.3566657,163.513335 95.0666686,163.799999 94.68,164.08 C94.2933314,164.360001 93.8166695,164.599999 93.25,164.8 C92.6833305,165.000001 92.0266704,165.1 91.28,165.1 C90.5333296,165.1 89.8566697,164.970001 89.25,164.71 C88.6433303,164.449999 88.1266688,164.080002 87.7,163.6 C87.2733312,163.119998 86.9466678,162.550003 86.72,161.89 C86.4933322,161.229997 86.38,160.500004 86.38,159.7 Z M91.28,156.7 C90.8933314,156.7 90.5633347,156.756666 90.29,156.87 C90.0166653,156.983334 89.7866676,157.129999 89.6,157.31 C89.4133324,157.490001 89.2700005,157.689999 89.17,157.91 C89.0699995,158.130001 89.0066668,158.339999 88.98,158.54 L93.5,158.54 C93.4733332,158.339999 93.4233337,158.130001 93.35,157.91 C93.2766663,157.689999 93.1566675,157.490001 92.99,157.31 C92.8233325,157.129999 92.6033347,156.983334 92.33,156.87 C92.0566653,156.756666 91.7066688,156.7 91.28,156.7 Z M108.14,164.36 C108.14,164.506667 108.086667,164.633333 107.98,164.74 C107.873333,164.846667 107.746667,164.9 107.6,164.9 L106.08,164.9 C105.933333,164.9 105.806667,164.846667 105.7,164.74 C105.593333,164.633333 105.54,164.506667 105.54,164.36 L105.54,159.28 C105.54,158.479996 105.353335,157.840002 104.98,157.36 C104.606665,156.879998 104.033337,156.64 103.26,156.64 C102.55333,156.64 101.996669,156.879998 101.59,157.36 C101.183331,157.840002 100.98,158.479996 100.98,159.28 L100.98,164.36 C100.98,164.506667 100.926667,164.633333 100.82,164.74 C100.713333,164.846667 100.586667,164.9 100.44,164.9 L98.92,164.9 C98.7733326,164.9 98.6466672,164.846667 98.54,164.74 C98.4333328,164.633333 98.38,164.506667 98.38,164.36 L98.38,155.04 C98.38,154.893333 98.4333328,154.766667 98.54,154.66 C98.6466672,154.553333 98.7733326,154.5 98.92,154.5 L100.44,154.5 C100.586667,154.5 100.713333,154.553333 100.82,154.66 C100.926667,154.766667 100.98,154.893333 100.98,155.04 L100.98,155.5 C101.326668,155.153332 101.733331,154.866668 102.2,154.64 C102.666669,154.413332 103.219997,154.3 103.86,154.3 C104.673337,154.3 105.353331,154.426665 105.9,154.68 C106.446669,154.933335 106.886665,155.273331 107.22,155.7 C107.553335,156.126669 107.789999,156.623331 107.93,157.19 C108.070001,157.756669 108.14,158.35333 108.14,158.98 L108.14,164.36 Z M114.2,161.14 C114.2,161.553335 114.309999,161.883332 114.53,162.13 C114.750001,162.376668 115.159997,162.5 115.76,162.5 L116.98,162.5 C117.126667,162.5 117.253333,162.553333 117.36,162.66 C117.466667,162.766667 117.52,162.893333 117.52,163.04 L117.52,164.36 C117.52,164.506667 117.466667,164.633333 117.36,164.74 C117.253333,164.846667 117.126667,164.9 116.98,164.9 L115.5,164.9 C114.24666,164.9 113.283337,164.59667 112.61,163.99 C111.936663,163.38333 111.6,162.45334 111.6,161.2 L111.6,156.9 L110.28,156.9 C110.133333,156.9 110.006667,156.846667 109.9,156.74 C109.793333,156.633333 109.74,156.506667 109.74,156.36 L109.74,155.04 C109.74,154.893333 109.793333,154.766667 109.9,154.66 C110.006667,154.553333 110.133333,154.5 110.28,154.5 L111.6,154.5 L111.6,151.24 C111.6,151.093333 111.653333,150.966667 111.76,150.86 C111.866667,150.753333 111.993333,150.7 112.14,150.7 L113.66,150.7 C113.806667,150.7 113.933333,150.753333 114.04,150.86 C114.146667,150.966667 114.2,151.093333 114.2,151.24 L114.2,154.5 L116.78,154.5 C116.926667,154.5 117.053333,154.553333 117.16,154.66 C117.266667,154.766667 117.32,154.893333 117.32,155.04 L117.32,156.36 C117.32,156.506667 117.266667,156.633333 117.16,156.74 C117.053333,156.846667 116.926667,156.9 116.78,156.9 L114.2,156.9 L114.2,161.14 Z M124.06,154.3 C124.793337,154.3 125.456664,154.413332 126.05,154.64 C126.643336,154.866668 127.156665,155.179998 127.59,155.58 C128.023336,155.980002 128.369999,156.446664 128.63,156.98 C128.890001,157.513336 129.04,158.086664 129.08,158.7 C129.093333,158.820001 129.1,158.973332 129.1,159.16 L129.1,160.27 C129.1,160.450001 129.093333,160.599999 129.08,160.72 C129.026666,161.333336 128.873335,161.906664 128.62,162.44 C128.366665,162.973336 128.023336,163.436665 127.59,163.83 C127.156665,164.223335 126.643336,164.533332 126.05,164.76 C125.456664,164.986668 124.793337,165.1 124.06,165.1 C123.326663,165.1 122.663336,164.986668 122.07,164.76 C121.476664,164.533332 120.963335,164.223335 120.53,163.83 C120.096665,163.436665 119.753335,162.973336 119.5,162.44 C119.246665,161.906664 119.093334,161.333336 119.04,160.72 C119.026667,160.599999 119.016667,160.450001 119.01,160.27 C119.003333,160.089999 119,159.906668 119,159.72 C119,159.533332 119.003333,159.346668 119.01,159.16 C119.016667,158.973332 119.026667,158.820001 119.04,158.7 C119.08,158.086664 119.229999,157.513336 119.49,156.98 C119.750001,156.446664 120.096665,155.980002 120.53,155.58 C120.963335,155.179998 121.476664,154.866668 122.07,154.64 C122.663336,154.413332 123.326663,154.3 124.06,154.3 Z M126.48,158.8 C126.44,158.386665 126.343334,158.043335 126.19,157.77 C126.036666,157.496665 125.846668,157.280001 125.62,157.12 C125.393332,156.959999 125.146668,156.85 124.88,156.79 C124.613332,156.73 124.340001,156.7 124.06,156.7 C123.779999,156.7 123.506668,156.73 123.24,156.79 C122.973332,156.85 122.726668,156.959999 122.5,157.12 C122.273332,157.280001 122.083334,157.496665 121.93,157.77 C121.776666,158.043335 121.68,158.386665 121.64,158.8 C121.626667,158.906667 121.616667,159.039999 121.61,159.2 C121.603333,159.360001 121.6,159.526666 121.6,159.7 C121.6,159.873334 121.603333,160.043333 121.61,160.21 C121.616667,160.376667 121.626667,160.506666 121.64,160.6 C121.68,161.013335 121.776666,161.356665 121.93,161.63 C122.083334,161.903335 122.273332,162.119999 122.5,162.28 C122.726668,162.440001 122.973332,162.55 123.24,162.61 C123.506668,162.67 123.779999,162.7 124.06,162.7 C124.340001,162.7 124.613332,162.67 124.88,162.61 C125.146668,162.55 125.393332,162.440001 125.62,162.28 C125.846668,162.119999 126.036666,161.903335 126.19,161.63 C126.343334,161.356665 126.44,161.013335 126.48,160.6 C126.493333,160.506666 126.5,160.376667 126.5,160.21 L126.5,159.2 C126.5,159.039999 126.493333,158.906667 126.48,158.8 Z M124.66,150 C124.806667,150 124.933333,150.026666 125.04,150.08 C125.146667,150.133334 125.266666,150.233333 125.4,150.38 L127.24,152.42 C127.306667,152.486667 127.34,152.573333 127.34,152.68 C127.34,152.893334 127.233334,153 127.02,153 L126.16,153 C126.026666,153 125.92,152.983333 125.84,152.95 C125.76,152.916666 125.660001,152.86 125.54,152.78 L124.06,151.84 L122.58,152.78 C122.459999,152.86 122.36,152.916666 122.28,152.95 C122.2,152.983333 122.093334,153 121.96,153 L121.1,153 C120.886666,153 120.78,152.893334 120.78,152.68 C120.78,152.573333 120.813333,152.486667 120.88,152.42 L122.72,150.38 C122.853334,150.233333 122.973333,150.133334 123.08,150.08 C123.186667,150.026666 123.313333,150 123.46,150 L124.66,150 Z M134.76,161.14 C134.76,161.553335 134.869999,161.883332 135.09,162.13 C135.310001,162.376668 135.719997,162.5 136.32,162.5 L137.54,162.5 C137.686667,162.5 137.813333,162.553333 137.92,162.66 C138.026667,162.766667 138.08,162.893333 138.08,163.04 L138.08,164.36 C138.08,164.506667 138.026667,164.633333 137.92,164.74 C137.813333,164.846667 137.686667,164.9 137.54,164.9 L136.06,164.9 C134.80666,164.9 133.843337,164.59667 133.17,163.99 C132.496663,163.38333 132.16,162.45334 132.16,161.2 L132.16,156.9 L130.84,156.9 C130.693333,156.9 130.566667,156.846667 130.46,156.74 C130.353333,156.633333 130.3,156.506667 130.3,156.36 L130.3,155.04 C130.3,154.893333 130.353333,154.766667 130.46,154.66 C130.566667,154.553333 130.693333,154.5 130.84,154.5 L132.16,154.5 L132.16,151.24 C132.16,151.093333 132.213333,150.966667 132.32,150.86 C132.426667,150.753333 132.553333,150.7 132.7,150.7 L134.22,150.7 C134.366667,150.7 134.493333,150.753333 134.6,150.86 C134.706667,150.966667 134.76,151.093333 134.76,151.24 L134.76,154.5 L137.34,154.5 C137.486667,154.5 137.613333,154.553333 137.72,154.66 C137.826667,154.766667 137.88,154.893333 137.88,155.04 L137.88,156.36 C137.88,156.506667 137.826667,156.633333 137.72,156.74 C137.613333,156.846667 137.486667,156.9 137.34,156.9 L134.76,156.9 L134.76,161.14 Z M150.88,161.86 C151.026667,161.86 151.153333,161.913333 151.26,162.02 C151.366667,162.126667 151.42,162.253333 151.42,162.4 L151.42,164.36 C151.42,164.506667 151.366667,164.633333 151.26,164.74 C151.153333,164.846667 151.026667,164.9 150.88,164.9 L149.02,164.9 C148.873333,164.9 148.746667,164.846667 148.64,164.74 C148.533333,164.633333 148.48,164.506667 148.48,164.36 L148.48,162.4 C148.48,162.253333 148.533333,162.126667 148.64,162.02 C148.746667,161.913333 148.873333,161.86 149.02,161.86 L150.88,161.86 Z M146.54,161.86 C146.686667,161.86 146.813333,161.913333 146.92,162.02 C147.026667,162.126667 147.08,162.253333 147.08,162.4 L147.08,164.36 C147.08,164.506667 147.026667,164.633333 146.92,164.74 C146.813333,164.846667 146.686667,164.9 146.54,164.9 L144.68,164.9 C144.533333,164.9 144.406667,164.846667 144.3,164.74 C144.193333,164.633333 144.14,164.506667 144.14,164.36 L144.14,162.4 C144.14,162.253333 144.193333,162.126667 144.3,162.02 C144.406667,161.913333 144.533333,161.86 144.68,161.86 L146.54,161.86 Z M142.2,161.86 C142.346667,161.86 142.473333,161.913333 142.58,162.02 C142.686667,162.126667 142.74,162.253333 142.74,162.4 L142.74,164.36 C142.74,164.506667 142.686667,164.633333 142.58,164.74 C142.473333,164.846667 142.346667,164.9 142.2,164.9 L140.34,164.9 C140.193333,164.9 140.066667,164.846667 139.96,164.74 C139.853333,164.633333 139.8,164.506667 139.8,164.36 L139.8,162.4 C139.8,162.253333 139.853333,162.126667 139.96,162.02 C140.066667,161.913333 140.193333,161.86 140.34,161.86 L142.2,161.86 Z" id="Bientôt…" fill="#282828"></path>
                <text id="💡" font-family="AppleColorEmoji, Apple Color Emoji" font-size="20" font-weight="normal" line-spacing="25" fill="#282828">
                    <tspan x="151" y="164">💡</tspan>
                </text>
            </g>
        </g>
    </g>
</svg>