<?xml version="1.0" encoding="UTF-8"?>
<svg width="238px" height="66px" viewBox="0 0 238 66" version="1.1" xmlns="http://www.w3.org/2000/svg" xmlns:xlink="http://www.w3.org/1999/xlink">
    <!-- Generator: Sketch 51.3 (57544) - http://www.bohemiancoding.com/sketch -->
    <title>blog_title</title>
    <desc>Created with Sketch.</desc>
    <defs></defs>
    <g id="Page-1" stroke="none" stroke-width="1" fill="none" fill-rule="evenodd">
        <g id="À-propos" transform="translate(-79.000000, -252.000000)" fill="#1E1E1E">
            <g id="blog_title" transform="translate(79.000000, 252.000000)">
                <path d="M37.12,19.512 C37.12,18.6159955 36.8540027,17.7480042 36.322,16.908 C35.7899973,16.0679958 34.9080062,15.648 33.676,15.648 L26.62,15.648 L26.62,23.292 L33.676,23.292 C34.9080062,23.292 35.7899973,22.8860041 36.322,22.074 C36.8540027,21.2619959 37.12,20.4080045 37.12,19.512 Z M26.62,45.552 L34.432,45.552 C35.832007,45.552 36.8259971,45.1040045 37.414,44.208 C38.0020029,43.3119955 38.296,42.3880048 38.296,41.436 C38.296,40.427995 37.9740032,39.4900043 37.33,38.622 C36.6859968,37.7539957 35.7200064,37.32 34.432,37.32 L26.62,37.32 L26.62,45.552 Z M7.888,60 C7.27199692,60 6.74000224,59.7760022 6.292,59.328 C5.84399776,58.8799978 5.62,58.3480031 5.62,57.732 L5.62,3.468 C5.62,2.85199692 5.84399776,2.32000224 6.292,1.872 C6.74000224,1.42399776 7.27199692,1.2 7.888,1.2 L35.776,1.2 C43.8400403,1.2 49.7339814,2.65598544 53.458,5.568 C57.1820186,8.48001456 59.044,12.9039703 59.044,18.84 C59.044,20.1840067 58.8200022,21.4299943 58.372,22.578 C57.9239978,23.7260057 57.3640034,24.7339957 56.692,25.602 C56.0199966,26.4700043 55.2920039,27.2259968 54.508,27.87 C53.7239961,28.5140032 52.9960034,29.0039983 52.324,29.34 C53.3880053,29.7880022 54.4099951,30.4179959 55.39,31.23 C56.3700049,32.0420041 57.2239964,32.9799947 57.952,34.044 C58.6800036,35.1080053 59.2539979,36.2699937 59.674,37.53 C60.0940021,38.7900063 60.304,40.119993 60.304,41.52 C60.304,47.8480316 58.2740203,52.509985 54.214,55.506 C50.1539797,58.502015 44.2880384,60 36.616,60 L7.888,60 Z M111.88,42.78 C112.496003,42.78 113.027998,43.0039978 113.476,43.452 C113.924002,43.9000022 114.148,44.4319969 114.148,45.048 L114.148,57.732 C114.148,58.3480031 113.924002,58.8799978 113.476,59.328 C113.027998,59.7760022 112.496003,60 111.88,60 L69.544,60 C68.9279969,60 68.3960022,59.7760022 67.948,59.328 C67.4999978,58.8799978 67.276,58.3480031 67.276,57.732 L67.276,3.468 C67.276,2.85199692 67.4999978,2.32000224 67.948,1.872 C68.3960022,1.42399776 68.9279969,1.2 69.544,1.2 L86.344,1.2 C86.9600031,1.2 87.4919978,1.42399776 87.94,1.872 C88.3880022,2.32000224 88.612,2.85199692 88.612,3.468 L88.612,42.78 L111.88,42.78 Z M173.872,23.376 C173.984001,25.784012 174.04,28.2759871 174.04,30.852 C174.04,33.4280129 173.984001,35.8639885 173.872,38.16 C173.703999,41.9120188 172.920007,45.2019859 171.52,48.03 C170.119993,50.8580141 168.202012,53.2239905 165.766,55.128 C163.329988,57.0320095 160.418017,58.4599952 157.03,59.412 C153.641983,60.3640048 149.90402,60.84 145.816,60.84 C141.671979,60.84 137.920017,60.3640048 134.56,59.412 C131.199983,58.4599952 128.302012,57.0320095 125.866,55.128 C123.429988,53.2239905 121.512007,50.8580141 120.112,48.03 C118.711993,45.2019859 117.928001,41.9120188 117.76,38.16 C117.647999,35.8639885 117.592,33.4280129 117.592,30.852 C117.592,28.2759871 117.647999,25.784012 117.76,23.376 C117.928001,19.6799815 118.711993,16.4040143 120.112,13.548 C121.512007,10.6919857 123.429988,8.2840098 125.866,6.324 C128.302012,4.3639902 131.199983,2.88000504 134.56,1.872 C137.920017,0.86399496 141.671979,0.36 145.816,0.36 C149.90402,0.36 153.641983,0.86399496 157.03,1.872 C160.418017,2.88000504 163.329988,4.3639902 165.766,6.324 C168.202012,8.2840098 170.119993,10.6919857 171.52,13.548 C172.920007,16.4040143 173.703999,19.6799815 173.872,23.376 Z M139.6,37.656 C139.712001,40.0080118 140.313995,41.7299945 141.406,42.822 C142.498005,43.9140055 143.967991,44.46 145.816,44.46 C147.664009,44.46 149.133995,43.9140055 150.226,42.822 C151.318005,41.7299945 151.919999,40.0080118 152.032,37.656 C152.200001,32.8959762 152.200001,28.1920232 152.032,23.544 C151.919999,21.1919882 151.304006,19.4700055 150.184,18.378 C149.063994,17.2859945 147.608009,16.74 145.816,16.74 C144.023991,16.74 142.568006,17.2859945 141.448,18.378 C140.327994,19.4700055 139.712001,21.1919882 139.6,23.544 C139.431999,28.1920232 139.431999,32.8959762 139.6,37.656 Z M208.396,16.74 C204.251979,16.74 202.096001,18.839979 201.928,23.04 C201.759999,27.6880232 201.759999,32.4479756 201.928,37.32 C202.040001,39.8400126 202.683994,41.6599944 203.86,42.78 C205.036006,43.9000056 206.65999,44.46 208.732,44.46 C210.860011,44.46 212.581993,43.9980046 213.898,43.074 C215.214007,42.1499954 215.872,40.5960109 215.872,38.412 L211.924,38.412 C211.307997,38.412 210.776002,38.1880022 210.328,37.74 C209.879998,37.2919978 209.656,36.7600031 209.656,36.144 L209.656,26.82 C209.656,26.2039969 209.879998,25.6720022 210.328,25.224 C210.776002,24.7759978 211.307997,24.552 211.924,24.552 L235.024,24.552 C235.640003,24.552 236.171998,24.7759978 236.62,25.224 C237.068002,25.6720022 237.292,26.2039969 237.292,26.82 L237.292,37.74 C237.292,41.548019 236.578007,44.8799857 235.15,47.736 C233.721993,50.5920143 231.734013,52.9999902 229.186,54.96 C226.637987,56.9200098 223.600018,58.3899951 220.072,59.37 C216.543982,60.3500049 212.652021,60.84 208.396,60.84 C204.139979,60.84 200.304017,60.3640048 196.888,59.412 C193.471983,58.4599952 190.546012,57.0320095 188.11,55.128 C185.673988,53.2239905 183.770007,50.8300144 182.398,47.946 C181.025993,45.0619856 180.256001,41.6600196 180.088,37.74 C179.975999,35.4439885 179.92,32.9520134 179.92,30.264 C179.92,27.5759866 179.975999,25.028012 180.088,22.62 C180.256001,18.9239815 181.039993,15.676014 182.44,12.876 C183.840007,10.075986 185.771988,7.75200924 188.236,5.904 C190.700012,4.05599076 193.639983,2.67000462 197.056,1.746 C200.472017,0.82199538 204.251979,0.36 208.396,0.36 C212.820022,0.36 216.809982,0.86399496 220.366,1.872 C223.922018,2.88000504 226.931988,4.23799146 229.396,5.946 C231.860012,7.65400854 233.777993,9.64198866 235.15,11.91 C236.522007,14.1780113 237.236,16.5719874 237.292,19.092 C237.292,19.5960025 237.110002,20.0299982 236.746,20.394 C236.381998,20.7580018 235.948003,20.94 235.444,20.94 L216.88,20.94 C215.759994,20.94 214.948003,20.6320031 214.444,20.016 C214.275999,19.7919989 214.066001,19.4980018 213.814,19.134 C213.561999,18.7699982 213.198002,18.4060018 212.722,18.042 C212.245998,17.6779982 211.658003,17.3700013 210.958,17.118 C210.257996,16.8659987 209.404005,16.74 208.396,16.74 Z" id="BLOG" opacity="0.362332589"></path>
                <path d="M32.12,24.512 C32.12,23.6159955 31.8540027,22.7480042 31.322,21.908 C30.7899973,21.0679958 29.9080062,20.648 28.676,20.648 L21.62,20.648 L21.62,28.292 L28.676,28.292 C29.9080062,28.292 30.7899973,27.8860041 31.322,27.074 C31.8540027,26.2619959 32.12,25.4080045 32.12,24.512 Z M21.62,50.552 L29.432,50.552 C30.832007,50.552 31.8259971,50.1040045 32.414,49.208 C33.0020029,48.3119955 33.296,47.3880048 33.296,46.436 C33.296,45.427995 32.9740032,44.4900043 32.33,43.622 C31.6859968,42.7539957 30.7200064,42.32 29.432,42.32 L21.62,42.32 L21.62,50.552 Z M2.888,65 C2.27199692,65 1.74000224,64.7760022 1.292,64.328 C0.84399776,63.8799978 0.62,63.3480031 0.62,62.732 L0.62,8.468 C0.62,7.85199692 0.84399776,7.32000224 1.292,6.872 C1.74000224,6.42399776 2.27199692,6.2 2.888,6.2 L30.776,6.2 C38.8400403,6.2 44.7339814,7.65598544 48.458,10.568 C52.1820186,13.4800146 54.044,17.9039703 54.044,23.84 C54.044,25.1840067 53.8200022,26.4299943 53.372,27.578 C52.9239978,28.7260057 52.3640034,29.7339957 51.692,30.602 C51.0199966,31.4700043 50.2920039,32.2259968 49.508,32.87 C48.7239961,33.5140032 47.9960034,34.0039983 47.324,34.34 C48.3880053,34.7880022 49.4099951,35.4179959 50.39,36.23 C51.3700049,37.0420041 52.2239964,37.9799947 52.952,39.044 C53.6800036,40.1080053 54.2539979,41.2699937 54.674,42.53 C55.0940021,43.7900063 55.304,45.119993 55.304,46.52 C55.304,52.8480316 53.2740203,57.509985 49.214,60.506 C45.1539797,63.502015 39.2880384,65 31.616,65 L2.888,65 Z M106.88,47.78 C107.496003,47.78 108.027998,48.0039978 108.476,48.452 C108.924002,48.9000022 109.148,49.4319969 109.148,50.048 L109.148,62.732 C109.148,63.3480031 108.924002,63.8799978 108.476,64.328 C108.027998,64.7760022 107.496003,65 106.88,65 L64.544,65 C63.9279969,65 63.3960022,64.7760022 62.948,64.328 C62.4999978,63.8799978 62.276,63.3480031 62.276,62.732 L62.276,8.468 C62.276,7.85199692 62.4999978,7.32000224 62.948,6.872 C63.3960022,6.42399776 63.9279969,6.2 64.544,6.2 L81.344,6.2 C81.9600031,6.2 82.4919978,6.42399776 82.94,6.872 C83.3880022,7.32000224 83.612,7.85199692 83.612,8.468 L83.612,47.78 L106.88,47.78 Z M168.872,28.376 C168.984001,30.784012 169.04,33.2759871 169.04,35.852 C169.04,38.4280129 168.984001,40.8639885 168.872,43.16 C168.703999,46.9120188 167.920007,50.2019859 166.52,53.03 C165.119993,55.8580141 163.202012,58.2239905 160.766,60.128 C158.329988,62.0320095 155.418017,63.4599952 152.03,64.412 C148.641983,65.3640048 144.90402,65.84 140.816,65.84 C136.671979,65.84 132.920017,65.3640048 129.56,64.412 C126.199983,63.4599952 123.302012,62.0320095 120.866,60.128 C118.429988,58.2239905 116.512007,55.8580141 115.112,53.03 C113.711993,50.2019859 112.928001,46.9120188 112.76,43.16 C112.647999,40.8639885 112.592,38.4280129 112.592,35.852 C112.592,33.2759871 112.647999,30.784012 112.76,28.376 C112.928001,24.6799815 113.711993,21.4040143 115.112,18.548 C116.512007,15.6919857 118.429988,13.2840098 120.866,11.324 C123.302012,9.3639902 126.199983,7.88000504 129.56,6.872 C132.920017,5.86399496 136.671979,5.36 140.816,5.36 C144.90402,5.36 148.641983,5.86399496 152.03,6.872 C155.418017,7.88000504 158.329988,9.3639902 160.766,11.324 C163.202012,13.2840098 165.119993,15.6919857 166.52,18.548 C167.920007,21.4040143 168.703999,24.6799815 168.872,28.376 Z M134.6,42.656 C134.712001,45.0080118 135.313995,46.7299945 136.406,47.822 C137.498005,48.9140055 138.967991,49.46 140.816,49.46 C142.664009,49.46 144.133995,48.9140055 145.226,47.822 C146.318005,46.7299945 146.919999,45.0080118 147.032,42.656 C147.200001,37.8959762 147.200001,33.1920232 147.032,28.544 C146.919999,26.1919882 146.304006,24.4700055 145.184,23.378 C144.063994,22.2859945 142.608009,21.74 140.816,21.74 C139.023991,21.74 137.568006,22.2859945 136.448,23.378 C135.327994,24.4700055 134.712001,26.1919882 134.6,28.544 C134.431999,33.1920232 134.431999,37.8959762 134.6,42.656 Z M203.396,21.74 C199.251979,21.74 197.096001,23.839979 196.928,28.04 C196.759999,32.6880232 196.759999,37.4479756 196.928,42.32 C197.040001,44.8400126 197.683994,46.6599944 198.86,47.78 C200.036006,48.9000056 201.65999,49.46 203.732,49.46 C205.860011,49.46 207.581993,48.9980046 208.898,48.074 C210.214007,47.1499954 210.872,45.5960109 210.872,43.412 L206.924,43.412 C206.307997,43.412 205.776002,43.1880022 205.328,42.74 C204.879998,42.2919978 204.656,41.7600031 204.656,41.144 L204.656,31.82 C204.656,31.2039969 204.879998,30.6720022 205.328,30.224 C205.776002,29.7759978 206.307997,29.552 206.924,29.552 L230.024,29.552 C230.640003,29.552 231.171998,29.7759978 231.62,30.224 C232.068002,30.6720022 232.292,31.2039969 232.292,31.82 L232.292,42.74 C232.292,46.548019 231.578007,49.8799857 230.15,52.736 C228.721993,55.5920143 226.734013,57.9999902 224.186,59.96 C221.637987,61.9200098 218.600018,63.3899951 215.072,64.37 C211.543982,65.3500049 207.652021,65.84 203.396,65.84 C199.139979,65.84 195.304017,65.3640048 191.888,64.412 C188.471983,63.4599952 185.546012,62.0320095 183.11,60.128 C180.673988,58.2239905 178.770007,55.8300144 177.398,52.946 C176.025993,50.0619856 175.256001,46.6600196 175.088,42.74 C174.975999,40.4439885 174.92,37.9520134 174.92,35.264 C174.92,32.5759866 174.975999,30.028012 175.088,27.62 C175.256001,23.9239815 176.039993,20.676014 177.44,17.876 C178.840007,15.075986 180.771988,12.7520092 183.236,10.904 C185.700012,9.05599076 188.639983,7.67000462 192.056,6.746 C195.472017,5.82199538 199.251979,5.36 203.396,5.36 C207.820022,5.36 211.809982,5.86399496 215.366,6.872 C218.922018,7.88000504 221.931988,9.23799146 224.396,10.946 C226.860012,12.6540085 228.777993,14.6419887 230.15,16.91 C231.522007,19.1780113 232.236,21.5719874 232.292,24.092 C232.292,24.5960025 232.110002,25.0299982 231.746,25.394 C231.381998,25.7580018 230.948003,25.94 230.444,25.94 L211.88,25.94 C210.759994,25.94 209.948003,25.6320031 209.444,25.016 C209.275999,24.7919989 209.066001,24.4980018 208.814,24.134 C208.561999,23.7699982 208.198002,23.4060018 207.722,23.042 C207.245998,22.6779982 206.658003,22.3700013 205.958,22.118 C205.257996,21.8659987 204.404005,21.74 203.396,21.74 Z" id="BLOG"></path>
            </g>
        </g>
    </g>
</svg>