<?xml version="1.0" encoding="UTF-8"?>
<svg width="464px" height="66px" viewBox="0 0 464 66" version="1.1" xmlns="http://www.w3.org/2000/svg" xmlns:xlink="http://www.w3.org/1999/xlink">
    <!-- Generator: Sketch 51.3 (57544) - http://www.bohemiancoding.com/sketch -->
    <title>books_title</title>
    <desc>Created with Sketch.</desc>
    <defs></defs>
    <g id="Page-1" stroke="none" stroke-width="1" fill="none" fill-rule="evenodd">
        <g id="Lectures" transform="translate(-79.000000, -252.000000)" fill="#1E1E1E">
            <g id="books_title" transform="translate(79.000000, 252.000000)">
                <path d="M50.224,42.78 C50.8400031,42.78 51.3719978,43.0039978 51.82,43.452 C52.2680022,43.9000022 52.492,44.4319969 52.492,45.048 L52.492,57.732 C52.492,58.3480031 52.2680022,58.8799978 51.82,59.328 C51.3719978,59.7760022 50.8400031,60 50.224,60 L7.888,60 C7.27199692,60 6.74000224,59.7760022 6.292,59.328 C5.84399776,58.8799978 5.62,58.3480031 5.62,57.732 L5.62,3.468 C5.62,2.85199692 5.84399776,2.32000224 6.292,1.872 C6.74000224,1.42399776 7.27199692,1.2 7.888,1.2 L24.688,1.2 C25.3040031,1.2 25.8359978,1.42399776 26.284,1.872 C26.7320022,2.32000224 26.956,2.85199692 26.956,3.468 L26.956,42.78 L50.224,42.78 Z M104.236,43.62 C104.852003,43.62 105.383998,43.8439978 105.832,44.292 C106.280002,44.7400022 106.504,45.2719969 106.504,45.888 L106.504,57.732 C106.504,58.3480031 106.280002,58.8799978 105.832,59.328 C105.383998,59.7760022 104.852003,60 104.236,60 L60.472,60 C59.8559969,60 59.3240022,59.7760022 58.876,59.328 C58.4279978,58.8799978 58.204,58.3480031 58.204,57.732 L58.204,3.468 C58.204,2.85199692 58.4279978,2.32000224 58.876,1.872 C59.3240022,1.42399776 59.8559969,1.2 60.472,1.2 L103.564,1.2 C104.180003,1.2 104.711998,1.42399776 105.16,1.872 C105.608002,2.32000224 105.832,2.85199692 105.832,3.468 L105.832,15.312 C105.832,15.9280031 105.608002,16.4599978 105.16,16.908 C104.711998,17.3560022 104.180003,17.58 103.564,17.58 L78.364,17.58 L78.364,22.872 L101.716,22.872 C102.332003,22.872 102.863998,23.0959978 103.312,23.544 C103.760002,23.9920022 103.984,24.5239969 103.984,25.14 L103.984,36.06 C103.984,36.6760031 103.760002,37.2079978 103.312,37.656 C102.863998,38.1040022 102.332003,38.328 101.716,38.328 L78.364,38.328 L78.364,43.62 L104.236,43.62 Z M134.14,23.544 C133.971999,28.1920232 133.971999,32.8959762 134.14,37.656 C134.252001,40.2320129 134.853995,42.0099951 135.946,42.99 C137.038005,43.9700049 138.507991,44.46 140.356,44.46 C141.812007,44.46 143.085995,44.1240034 144.178,43.452 C145.270005,42.7799966 146.095997,41.6040084 146.656,39.924 C146.936001,38.9719952 147.285998,38.3280017 147.706,37.992 C148.126002,37.6559983 148.811995,37.488 149.764,37.488 L166.9,37.488 C167.404003,37.488 167.837998,37.6699982 168.202,38.034 C168.566002,38.3980018 168.748,38.8319975 168.748,39.336 C168.692,43.144019 167.852008,46.4059864 166.228,49.122 C164.603992,51.8380136 162.476013,54.0639913 159.844,55.8 C157.211987,57.5360087 154.216017,58.8099959 150.856,59.622 C147.495983,60.4340041 144.024018,60.84 140.44,60.84 C136.40798,60.84 132.712017,60.4060043 129.352,59.538 C125.991983,58.6699957 123.066012,57.3120092 120.574,55.464 C118.081988,53.6159908 116.122007,51.2640143 114.694,48.408 C113.265993,45.5519857 112.468001,42.1080202 112.3,38.076 C112.187999,35.7799885 112.132,33.3160132 112.132,30.684 C112.132,28.0519868 112.187999,25.532012 112.3,23.124 C112.468001,19.2039804 113.293993,15.8160143 114.778,12.96 C116.262007,10.1039857 118.249988,7.73800938 120.742,5.862 C123.234012,3.98599062 126.159983,2.60000448 129.52,1.704 C132.880017,0.80799552 136.51998,0.36 140.44,0.36 C144.024018,0.36 147.495983,0.76599594 150.856,1.578 C154.216017,2.39000406 157.211987,3.66399132 159.844,5.4 C162.476013,7.13600868 164.603992,9.36198642 166.228,12.078 C167.852008,14.7940136 168.692,18.055981 168.748,21.864 C168.748,22.3680025 168.566002,22.8019982 168.202,23.166 C167.837998,23.5300018 167.404003,23.712 166.9,23.712 L149.764,23.712 C148.811995,23.712 148.140002,23.5440017 147.748,23.208 C147.355998,22.8719983 146.992002,22.2280048 146.656,21.276 C146.039997,19.483991 145.200005,18.2800031 144.136,17.664 C143.071995,17.0479969 141.812007,16.74 140.356,16.74 C138.507991,16.74 137.038005,17.2299951 135.946,18.21 C134.853995,19.1900049 134.252001,20.9679871 134.14,23.544 Z M223.684,1.2 C224.300003,1.2 224.831998,1.42399776 225.28,1.872 C225.728002,2.32000224 225.952,2.85199692 225.952,3.468 L225.952,16.992 C225.952,17.6080031 225.728002,18.1399978 225.28,18.588 C224.831998,19.0360022 224.300003,19.26 223.684,19.26 L209.74,19.26 L209.74,57.732 C209.74,58.3480031 209.516002,58.8799978 209.068,59.328 C208.619998,59.7760022 208.088003,60 207.472,60 L190.672,60 C190.055997,60 189.524002,59.7760022 189.076,59.328 C188.627998,58.8799978 188.404,58.3480031 188.404,57.732 L188.404,19.26 L174.46,19.26 C173.843997,19.26 173.312002,19.0360022 172.864,18.588 C172.415998,18.1399978 172.192,17.6080031 172.192,16.992 L172.192,3.468 C172.192,2.85199692 172.415998,2.32000224 172.864,1.872 C173.312002,1.42399776 173.843997,1.2 174.46,1.2 L223.684,1.2 Z M283.66,1.2 C284.276003,1.2 284.807998,1.42399776 285.256,1.872 C285.704002,2.32000224 285.928,2.85199692 285.928,3.468 L285.928,37.824 C285.928,41.8000199 285.256007,45.2299856 283.912,48.114 C282.567993,50.9980144 280.706012,53.3919905 278.326,55.296 C275.945988,57.2000095 273.090017,58.5999955 269.758,59.496 C266.425983,60.3920045 262.77202,60.84 258.796,60.84 C254.76398,60.84 251.068017,60.3920045 247.708,59.496 C244.347983,58.5999955 241.478012,57.2000095 239.098,55.296 C236.717988,53.3919905 234.856007,50.9980144 233.512,48.114 C232.167993,45.2299856 231.496,41.8000199 231.496,37.824 L231.496,3.468 C231.496,2.85199692 231.719998,2.32000224 232.168,1.872 C232.616002,1.42399776 233.147997,1.2 233.764,1.2 L250.228,1.2 C250.844003,1.2 251.375998,1.42399776 251.824,1.872 C252.272002,2.32000224 252.496,2.85199692 252.496,3.468 L252.496,37.488 C252.496,41.8000216 254.567979,43.956 258.712,43.956 C262.856021,43.956 264.928,41.8000216 264.928,37.488 L264.928,3.468 C264.928,2.85199692 265.151998,2.32000224 265.6,1.872 C266.048002,1.42399776 266.579997,1.2 267.196,1.2 L283.66,1.2 Z M348.76,57.228 C348.928001,57.5640017 349.012,57.8719986 349.012,58.152 C349.012,58.6560025 348.830002,59.0899982 348.466,59.454 C348.101998,59.8180018 347.668003,60 347.164,60 L329.944,60 C328.823994,60 327.984003,59.7200028 327.424,59.16 C326.863997,58.5999972 326.500001,58.124002 326.332,57.732 L319.108,41.688 L315.664,41.688 L315.664,57.732 C315.664,58.3480031 315.440002,58.8799978 314.992,59.328 C314.543998,59.7760022 314.012003,60 313.396,60 L296.932,60 C296.315997,60 295.784002,59.7760022 295.336,59.328 C294.887998,58.8799978 294.664,58.3480031 294.664,57.732 L294.664,3.468 C294.664,2.85199692 294.887998,2.32000224 295.336,1.872 C295.784002,1.42399776 296.315997,1.2 296.932,1.2 L321.796,1.2 C325.82802,1.2 329.439984,1.66199538 332.632,2.586 C335.824016,3.51000462 338.511989,4.85399118 340.696,6.618 C342.880011,8.38200882 344.559994,10.5239874 345.736,13.044 C346.912006,15.5640126 347.5,18.419984 347.5,21.612 C347.5,25.420019 346.660008,28.6959863 344.98,31.44 C343.299992,34.1840137 341.116013,36.3959916 338.428,38.076 L348.76,57.228 Z M315.664,25.728 L321.796,25.728 C323.084006,25.728 324.049997,25.2940043 324.694,24.426 C325.338003,23.5579957 325.66,22.5640056 325.66,21.444 C325.66,20.3239944 325.366003,19.2740049 324.778,18.294 C324.189997,17.3139951 323.196007,16.824 321.796,16.824 L315.664,16.824 L315.664,25.728 Z M401.344,43.62 C401.960003,43.62 402.491998,43.8439978 402.94,44.292 C403.388002,44.7400022 403.612,45.2719969 403.612,45.888 L403.612,57.732 C403.612,58.3480031 403.388002,58.8799978 402.94,59.328 C402.491998,59.7760022 401.960003,60 401.344,60 L357.58,60 C356.963997,60 356.432002,59.7760022 355.984,59.328 C355.535998,58.8799978 355.312,58.3480031 355.312,57.732 L355.312,3.468 C355.312,2.85199692 355.535998,2.32000224 355.984,1.872 C356.432002,1.42399776 356.963997,1.2 357.58,1.2 L400.672,1.2 C401.288003,1.2 401.819998,1.42399776 402.268,1.872 C402.716002,2.32000224 402.94,2.85199692 402.94,3.468 L402.94,15.312 C402.94,15.9280031 402.716002,16.4599978 402.268,16.908 C401.819998,17.3560022 401.288003,17.58 400.672,17.58 L375.472,17.58 L375.472,22.872 L398.824,22.872 C399.440003,22.872 399.971998,23.0959978 400.42,23.544 C400.868002,23.9920022 401.092,24.5239969 401.092,25.14 L401.092,36.06 C401.092,36.6760031 400.868002,37.2079978 400.42,37.656 C399.971998,38.1040022 399.440003,38.328 398.824,38.328 L375.472,38.328 L375.472,43.62 L401.344,43.62 Z M435.28,0.36 C439.480021,0.36 443.203984,0.9199944 446.452,2.04 C449.700016,3.1600056 452.443989,4.58799132 454.684,6.324 C456.924011,8.06000868 458.631994,9.93598992 459.808,11.952 C460.984006,13.9680101 461.6,15.8999908 461.656,17.748 C461.656,18.2520025 461.474002,18.6859982 461.11,19.05 C460.745998,19.4140018 460.340002,19.596 459.892,19.596 L443.092,19.596 C442.307996,19.596 441.678002,19.4840011 441.202,19.26 C440.725998,19.0359989 440.236003,18.7000022 439.732,18.252 C439.451999,17.9719986 438.934004,17.6500018 438.178,17.286 C437.421996,16.9219982 436.456006,16.74 435.28,16.74 C433.823993,16.74 432.788003,16.9499979 432.172,17.37 C431.555997,17.7900021 431.248,18.3639964 431.248,19.092 C431.248,19.484002 431.373999,19.8479983 431.626,20.184 C431.878001,20.5200017 432.353996,20.8419985 433.054,21.15 C433.754003,21.4580015 434.705994,21.7379987 435.91,21.99 C437.114006,22.2420013 438.66799,22.4799989 440.572,22.704 C444.772021,23.2080025 448.341985,23.9359952 451.282,24.888 C454.222015,25.8400048 456.615991,27.0579926 458.464,28.542 C460.312009,30.0260074 461.655996,31.7899898 462.496,33.834 C463.336004,35.8780102 463.756,38.2719863 463.756,41.016 C463.756,44.0960154 463.042007,46.8539878 461.614,49.29 C460.185993,51.7260122 458.226012,53.7979915 455.734,55.506 C453.241988,57.2140085 450.302017,58.5299954 446.914,59.454 C443.525983,60.3780046 439.84402,60.84 435.868,60.84 C431.219977,60.84 427.174017,60.3500049 423.73,59.37 C420.285983,58.3899951 417.430011,57.0740083 415.162,55.422 C412.893989,53.7699917 411.186006,51.8660108 410.038,49.71 C408.889994,47.5539892 408.288,45.3000118 408.232,42.948 C408.232,42.4439975 408.413998,42.0100018 408.778,41.646 C409.142002,41.2819982 409.575997,41.1 410.08,41.1 L426.04,41.1 C426.936004,41.1 427.607998,41.2259987 428.056,41.478 C428.504002,41.7300013 429.035997,42.0799978 429.652,42.528 C430.436004,43.1440031 431.317995,43.6199983 432.298,43.956 C433.278005,44.2920017 434.467993,44.46 435.868,44.46 C437.77201,44.46 439.297994,44.264002 440.446,43.872 C441.594006,43.479998 442.168,42.8920039 442.168,42.108 C442.168,41.099995 441.398008,40.3300027 439.858,39.798 C438.317992,39.2659973 435.476021,38.7200028 431.332,38.16 C428.027983,37.7119978 425.032013,37.0260046 422.344,36.102 C419.655987,35.1779954 417.374009,33.9600076 415.498,32.448 C413.621991,30.9359924 412.180005,29.1300105 411.172,27.03 C410.163995,24.9299895 409.66,22.480014 409.66,19.68 C409.66,16.8239857 410.275994,14.2060119 411.508,11.826 C412.740006,9.4459881 414.475989,7.4160084 416.716,5.736 C418.956011,4.0559916 421.657984,2.74000476 424.822,1.788 C427.986016,0.83599524 431.471981,0.36 435.28,0.36 Z" id="LECTURES" opacity="0.362332589"></path>
                <path d="M45.224,47.78 C45.8400031,47.78 46.3719978,48.0039978 46.82,48.452 C47.2680022,48.9000022 47.492,49.4319969 47.492,50.048 L47.492,62.732 C47.492,63.3480031 47.2680022,63.8799978 46.82,64.328 C46.3719978,64.7760022 45.8400031,65 45.224,65 L2.888,65 C2.27199692,65 1.74000224,64.7760022 1.292,64.328 C0.84399776,63.8799978 0.62,63.3480031 0.62,62.732 L0.62,8.468 C0.62,7.85199692 0.84399776,7.32000224 1.292,6.872 C1.74000224,6.42399776 2.27199692,6.2 2.888,6.2 L19.688,6.2 C20.3040031,6.2 20.8359978,6.42399776 21.284,6.872 C21.7320022,7.32000224 21.956,7.85199692 21.956,8.468 L21.956,47.78 L45.224,47.78 Z M99.236,48.62 C99.8520031,48.62 100.383998,48.8439978 100.832,49.292 C101.280002,49.7400022 101.504,50.2719969 101.504,50.888 L101.504,62.732 C101.504,63.3480031 101.280002,63.8799978 100.832,64.328 C100.383998,64.7760022 99.8520031,65 99.236,65 L55.472,65 C54.8559969,65 54.3240022,64.7760022 53.876,64.328 C53.4279978,63.8799978 53.204,63.3480031 53.204,62.732 L53.204,8.468 C53.204,7.85199692 53.4279978,7.32000224 53.876,6.872 C54.3240022,6.42399776 54.8559969,6.2 55.472,6.2 L98.564,6.2 C99.1800031,6.2 99.7119978,6.42399776 100.16,6.872 C100.608002,7.32000224 100.832,7.85199692 100.832,8.468 L100.832,20.312 C100.832,20.9280031 100.608002,21.4599978 100.16,21.908 C99.7119978,22.3560022 99.1800031,22.58 98.564,22.58 L73.364,22.58 L73.364,27.872 L96.716,27.872 C97.3320031,27.872 97.8639978,28.0959978 98.312,28.544 C98.7600022,28.9920022 98.984,29.5239969 98.984,30.14 L98.984,41.06 C98.984,41.6760031 98.7600022,42.2079978 98.312,42.656 C97.8639978,43.1040022 97.3320031,43.328 96.716,43.328 L73.364,43.328 L73.364,48.62 L99.236,48.62 Z M129.14,28.544 C128.971999,33.1920232 128.971999,37.8959762 129.14,42.656 C129.252001,45.2320129 129.853995,47.0099951 130.946,47.99 C132.038005,48.9700049 133.507991,49.46 135.356,49.46 C136.812007,49.46 138.085995,49.1240034 139.178,48.452 C140.270005,47.7799966 141.095997,46.6040084 141.656,44.924 C141.936001,43.9719952 142.285998,43.3280017 142.706,42.992 C143.126002,42.6559983 143.811995,42.488 144.764,42.488 L161.9,42.488 C162.404003,42.488 162.837998,42.6699982 163.202,43.034 C163.566002,43.3980018 163.748,43.8319975 163.748,44.336 C163.692,48.144019 162.852008,51.4059864 161.228,54.122 C159.603992,56.8380136 157.476013,59.0639913 154.844,60.8 C152.211987,62.5360087 149.216017,63.8099959 145.856,64.622 C142.495983,65.4340041 139.024018,65.84 135.44,65.84 C131.40798,65.84 127.712017,65.4060043 124.352,64.538 C120.991983,63.6699957 118.066012,62.3120092 115.574,60.464 C113.081988,58.6159908 111.122007,56.2640143 109.694,53.408 C108.265993,50.5519857 107.468001,47.1080202 107.3,43.076 C107.187999,40.7799885 107.132,38.3160132 107.132,35.684 C107.132,33.0519868 107.187999,30.532012 107.3,28.124 C107.468001,24.2039804 108.293993,20.8160143 109.778,17.96 C111.262007,15.1039857 113.249988,12.7380094 115.742,10.862 C118.234012,8.98599062 121.159983,7.60000448 124.52,6.704 C127.880017,5.80799552 131.51998,5.36 135.44,5.36 C139.024018,5.36 142.495983,5.76599594 145.856,6.578 C149.216017,7.39000406 152.211987,8.66399132 154.844,10.4 C157.476013,12.1360087 159.603992,14.3619864 161.228,17.078 C162.852008,19.7940136 163.692,23.055981 163.748,26.864 C163.748,27.3680025 163.566002,27.8019982 163.202,28.166 C162.837998,28.5300018 162.404003,28.712 161.9,28.712 L144.764,28.712 C143.811995,28.712 143.140002,28.5440017 142.748,28.208 C142.355998,27.8719983 141.992002,27.2280048 141.656,26.276 C141.039997,24.483991 140.200005,23.2800031 139.136,22.664 C138.071995,22.0479969 136.812007,21.74 135.356,21.74 C133.507991,21.74 132.038005,22.2299951 130.946,23.21 C129.853995,24.1900049 129.252001,25.9679871 129.14,28.544 Z M218.684,6.2 C219.300003,6.2 219.831998,6.42399776 220.28,6.872 C220.728002,7.32000224 220.952,7.85199692 220.952,8.468 L220.952,21.992 C220.952,22.6080031 220.728002,23.1399978 220.28,23.588 C219.831998,24.0360022 219.300003,24.26 218.684,24.26 L204.74,24.26 L204.74,62.732 C204.74,63.3480031 204.516002,63.8799978 204.068,64.328 C203.619998,64.7760022 203.088003,65 202.472,65 L185.672,65 C185.055997,65 184.524002,64.7760022 184.076,64.328 C183.627998,63.8799978 183.404,63.3480031 183.404,62.732 L183.404,24.26 L169.46,24.26 C168.843997,24.26 168.312002,24.0360022 167.864,23.588 C167.415998,23.1399978 167.192,22.6080031 167.192,21.992 L167.192,8.468 C167.192,7.85199692 167.415998,7.32000224 167.864,6.872 C168.312002,6.42399776 168.843997,6.2 169.46,6.2 L218.684,6.2 Z M278.66,6.2 C279.276003,6.2 279.807998,6.42399776 280.256,6.872 C280.704002,7.32000224 280.928,7.85199692 280.928,8.468 L280.928,42.824 C280.928,46.8000199 280.256007,50.2299856 278.912,53.114 C277.567993,55.9980144 275.706012,58.3919905 273.326,60.296 C270.945988,62.2000095 268.090017,63.5999955 264.758,64.496 C261.425983,65.3920045 257.77202,65.84 253.796,65.84 C249.76398,65.84 246.068017,65.3920045 242.708,64.496 C239.347983,63.5999955 236.478012,62.2000095 234.098,60.296 C231.717988,58.3919905 229.856007,55.9980144 228.512,53.114 C227.167993,50.2299856 226.496,46.8000199 226.496,42.824 L226.496,8.468 C226.496,7.85199692 226.719998,7.32000224 227.168,6.872 C227.616002,6.42399776 228.147997,6.2 228.764,6.2 L245.228,6.2 C245.844003,6.2 246.375998,6.42399776 246.824,6.872 C247.272002,7.32000224 247.496,7.85199692 247.496,8.468 L247.496,42.488 C247.496,46.8000216 249.567979,48.956 253.712,48.956 C257.856021,48.956 259.928,46.8000216 259.928,42.488 L259.928,8.468 C259.928,7.85199692 260.151998,7.32000224 260.6,6.872 C261.048002,6.42399776 261.579997,6.2 262.196,6.2 L278.66,6.2 Z M343.76,62.228 C343.928001,62.5640017 344.012,62.8719986 344.012,63.152 C344.012,63.6560025 343.830002,64.0899982 343.466,64.454 C343.101998,64.8180018 342.668003,65 342.164,65 L324.944,65 C323.823994,65 322.984003,64.7200028 322.424,64.16 C321.863997,63.5999972 321.500001,63.124002 321.332,62.732 L314.108,46.688 L310.664,46.688 L310.664,62.732 C310.664,63.3480031 310.440002,63.8799978 309.992,64.328 C309.543998,64.7760022 309.012003,65 308.396,65 L291.932,65 C291.315997,65 290.784002,64.7760022 290.336,64.328 C289.887998,63.8799978 289.664,63.3480031 289.664,62.732 L289.664,8.468 C289.664,7.85199692 289.887998,7.32000224 290.336,6.872 C290.784002,6.42399776 291.315997,6.2 291.932,6.2 L316.796,6.2 C320.82802,6.2 324.439984,6.66199538 327.632,7.586 C330.824016,8.51000462 333.511989,9.85399118 335.696,11.618 C337.880011,13.3820088 339.559994,15.5239874 340.736,18.044 C341.912006,20.5640126 342.5,23.419984 342.5,26.612 C342.5,30.420019 341.660008,33.6959863 339.98,36.44 C338.299992,39.1840137 336.116013,41.3959916 333.428,43.076 L343.76,62.228 Z M310.664,30.728 L316.796,30.728 C318.084006,30.728 319.049997,30.2940043 319.694,29.426 C320.338003,28.5579957 320.66,27.5640056 320.66,26.444 C320.66,25.3239944 320.366003,24.2740049 319.778,23.294 C319.189997,22.3139951 318.196007,21.824 316.796,21.824 L310.664,21.824 L310.664,30.728 Z M396.344,48.62 C396.960003,48.62 397.491998,48.8439978 397.94,49.292 C398.388002,49.7400022 398.612,50.2719969 398.612,50.888 L398.612,62.732 C398.612,63.3480031 398.388002,63.8799978 397.94,64.328 C397.491998,64.7760022 396.960003,65 396.344,65 L352.58,65 C351.963997,65 351.432002,64.7760022 350.984,64.328 C350.535998,63.8799978 350.312,63.3480031 350.312,62.732 L350.312,8.468 C350.312,7.85199692 350.535998,7.32000224 350.984,6.872 C351.432002,6.42399776 351.963997,6.2 352.58,6.2 L395.672,6.2 C396.288003,6.2 396.819998,6.42399776 397.268,6.872 C397.716002,7.32000224 397.94,7.85199692 397.94,8.468 L397.94,20.312 C397.94,20.9280031 397.716002,21.4599978 397.268,21.908 C396.819998,22.3560022 396.288003,22.58 395.672,22.58 L370.472,22.58 L370.472,27.872 L393.824,27.872 C394.440003,27.872 394.971998,28.0959978 395.42,28.544 C395.868002,28.9920022 396.092,29.5239969 396.092,30.14 L396.092,41.06 C396.092,41.6760031 395.868002,42.2079978 395.42,42.656 C394.971998,43.1040022 394.440003,43.328 393.824,43.328 L370.472,43.328 L370.472,48.62 L396.344,48.62 Z M430.28,5.36 C434.480021,5.36 438.203984,5.9199944 441.452,7.04 C444.700016,8.1600056 447.443989,9.58799132 449.684,11.324 C451.924011,13.0600087 453.631994,14.9359899 454.808,16.952 C455.984006,18.9680101 456.6,20.8999908 456.656,22.748 C456.656,23.2520025 456.474002,23.6859982 456.11,24.05 C455.745998,24.4140018 455.340002,24.596 454.892,24.596 L438.092,24.596 C437.307996,24.596 436.678002,24.4840011 436.202,24.26 C435.725998,24.0359989 435.236003,23.7000022 434.732,23.252 C434.451999,22.9719986 433.934004,22.6500018 433.178,22.286 C432.421996,21.9219982 431.456006,21.74 430.28,21.74 C428.823993,21.74 427.788003,21.9499979 427.172,22.37 C426.555997,22.7900021 426.248,23.3639964 426.248,24.092 C426.248,24.484002 426.373999,24.8479983 426.626,25.184 C426.878001,25.5200017 427.353996,25.8419985 428.054,26.15 C428.754003,26.4580015 429.705994,26.7379987 430.91,26.99 C432.114006,27.2420013 433.66799,27.4799989 435.572,27.704 C439.772021,28.2080025 443.341985,28.9359952 446.282,29.888 C449.222015,30.8400048 451.615991,32.0579926 453.464,33.542 C455.312009,35.0260074 456.655996,36.7899898 457.496,38.834 C458.336004,40.8780102 458.756,43.2719863 458.756,46.016 C458.756,49.0960154 458.042007,51.8539878 456.614,54.29 C455.185993,56.7260122 453.226012,58.7979915 450.734,60.506 C448.241988,62.2140085 445.302017,63.5299954 441.914,64.454 C438.525983,65.3780046 434.84402,65.84 430.868,65.84 C426.219977,65.84 422.174017,65.3500049 418.73,64.37 C415.285983,63.3899951 412.430011,62.0740083 410.162,60.422 C407.893989,58.7699917 406.186006,56.8660108 405.038,54.71 C403.889994,52.5539892 403.288,50.3000118 403.232,47.948 C403.232,47.4439975 403.413998,47.0100018 403.778,46.646 C404.142002,46.2819982 404.575997,46.1 405.08,46.1 L421.04,46.1 C421.936004,46.1 422.607998,46.2259987 423.056,46.478 C423.504002,46.7300013 424.035997,47.0799978 424.652,47.528 C425.436004,48.1440031 426.317995,48.6199983 427.298,48.956 C428.278005,49.2920017 429.467993,49.46 430.868,49.46 C432.77201,49.46 434.297994,49.264002 435.446,48.872 C436.594006,48.479998 437.168,47.8920039 437.168,47.108 C437.168,46.099995 436.398008,45.3300027 434.858,44.798 C433.317992,44.2659973 430.476021,43.7200028 426.332,43.16 C423.027983,42.7119978 420.032013,42.0260046 417.344,41.102 C414.655987,40.1779954 412.374009,38.9600076 410.498,37.448 C408.621991,35.9359924 407.180005,34.1300105 406.172,32.03 C405.163995,29.9299895 404.66,27.480014 404.66,24.68 C404.66,21.8239857 405.275994,19.2060119 406.508,16.826 C407.740006,14.4459881 409.475989,12.4160084 411.716,10.736 C413.956011,9.0559916 416.657984,7.74000476 419.822,6.788 C422.986016,5.83599524 426.471981,5.36 430.28,5.36 Z" id="LECTURES"></path>
            </g>
        </g>
    </g>
</svg>