<?xml version="1.0" encoding="UTF-8"?>
<svg width="523px" height="66px" viewBox="0 0 523 66" version="1.1" xmlns="http://www.w3.org/2000/svg" xmlns:xlink="http://www.w3.org/1999/xlink">
    <!-- Generator: Sketch 51.3 (57544) - http://www.bohemiancoding.com/sketch -->
    <title>home_title</title>
    <desc>Created with Sketch.</desc>
    <defs></defs>
    <g id="Page-1" stroke="none" stroke-width="1" fill="none" fill-rule="evenodd">
        <g id="Home" transform="translate(-79.000000, -252.000000)" fill="#FFFFFF">
            <g id="home_title" transform="translate(79.000000, 252.000000)">
                <path d="M58.96,1.2 C59.5760031,1.2 60.1079978,1.42399776 60.556,1.872 C61.0040022,2.32000224 61.228,2.85199692 61.228,3.468 L61.228,57.732 C61.228,58.3480031 61.0040022,58.8799978 60.556,59.328 C60.1079978,59.7760022 59.5760031,60 58.96,60 L42.496,60 C41.8799969,60 41.3480022,59.7760022 40.9,59.328 C40.4519978,58.8799978 40.228,58.3480031 40.228,57.732 L40.228,39.588 L26.62,39.588 L26.62,57.732 C26.62,58.3480031 26.3960022,58.8799978 25.948,59.328 C25.4999978,59.7760022 24.9680031,60 24.352,60 L7.888,60 C7.27199692,60 6.74000224,59.7900021 6.292,59.37 C5.84399776,58.9499979 5.62,58.4040034 5.62,57.732 L5.62,3.468 C5.62,2.85199692 5.84399776,2.32000224 6.292,1.872 C6.74000224,1.42399776 7.27199692,1.2 7.888,1.2 L24.352,1.2 C24.9680031,1.2 25.4999978,1.42399776 25.948,1.872 C26.3960022,2.32000224 26.62,2.85199692 26.62,3.468 L26.62,21.108 L40.228,21.108 L40.228,3.468 C40.228,2.85199692 40.4519978,2.32000224 40.9,1.872 C41.3480022,1.42399776 41.8799969,1.2 42.496,1.2 L58.96,1.2 Z M116.5,43.62 C117.116003,43.62 117.647998,43.8439978 118.096,44.292 C118.544002,44.7400022 118.768,45.2719969 118.768,45.888 L118.768,57.732 C118.768,58.3480031 118.544002,58.8799978 118.096,59.328 C117.647998,59.7760022 117.116003,60 116.5,60 L72.736,60 C72.1199969,60 71.5880022,59.7760022 71.14,59.328 C70.6919978,58.8799978 70.468,58.3480031 70.468,57.732 L70.468,3.468 C70.468,2.85199692 70.6919978,2.32000224 71.14,1.872 C71.5880022,1.42399776 72.1199969,1.2 72.736,1.2 L115.828,1.2 C116.444003,1.2 116.975998,1.42399776 117.424,1.872 C117.872002,2.32000224 118.096,2.85199692 118.096,3.468 L118.096,15.312 C118.096,15.9280031 117.872002,16.4599978 117.424,16.908 C116.975998,17.3560022 116.444003,17.58 115.828,17.58 L90.628,17.58 L90.628,22.872 L113.98,22.872 C114.596003,22.872 115.127998,23.0959978 115.576,23.544 C116.024002,23.9920022 116.248,24.5239969 116.248,25.14 L116.248,36.06 C116.248,36.6760031 116.024002,37.2079978 115.576,37.656 C115.127998,38.1040022 114.596003,38.328 113.98,38.328 L90.628,38.328 L90.628,43.62 L116.5,43.62 Z M171.1,42.78 C171.716003,42.78 172.247998,43.0039978 172.696,43.452 C173.144002,43.9000022 173.368,44.4319969 173.368,45.048 L173.368,57.732 C173.368,58.3480031 173.144002,58.8799978 172.696,59.328 C172.247998,59.7760022 171.716003,60 171.1,60 L128.764,60 C128.147997,60 127.616002,59.7760022 127.168,59.328 C126.719998,58.8799978 126.496,58.3480031 126.496,57.732 L126.496,3.468 C126.496,2.85199692 126.719998,2.32000224 127.168,1.872 C127.616002,1.42399776 128.147997,1.2 128.764,1.2 L145.564,1.2 C146.180003,1.2 146.711998,1.42399776 147.16,1.872 C147.608002,2.32000224 147.832,2.85199692 147.832,3.468 L147.832,42.78 L171.1,42.78 Z M223.684,42.78 C224.300003,42.78 224.831998,43.0039978 225.28,43.452 C225.728002,43.9000022 225.952,44.4319969 225.952,45.048 L225.952,57.732 C225.952,58.3480031 225.728002,58.8799978 225.28,59.328 C224.831998,59.7760022 224.300003,60 223.684,60 L181.348,60 C180.731997,60 180.200002,59.7760022 179.752,59.328 C179.303998,58.8799978 179.08,58.3480031 179.08,57.732 L179.08,3.468 C179.08,2.85199692 179.303998,2.32000224 179.752,1.872 C180.200002,1.42399776 180.731997,1.2 181.348,1.2 L198.148,1.2 C198.764003,1.2 199.295998,1.42399776 199.744,1.872 C200.192002,2.32000224 200.416,2.85199692 200.416,3.468 L200.416,42.78 L223.684,42.78 Z M285.676,23.376 C285.788001,25.784012 285.844,28.2759871 285.844,30.852 C285.844,33.4280129 285.788001,35.8639885 285.676,38.16 C285.507999,41.9120188 284.724007,45.2019859 283.324,48.03 C281.923993,50.8580141 280.006012,53.2239905 277.57,55.128 C275.133988,57.0320095 272.222017,58.4599952 268.834,59.412 C265.445983,60.3640048 261.70802,60.84 257.62,60.84 C253.475979,60.84 249.724017,60.3640048 246.364,59.412 C243.003983,58.4599952 240.106012,57.0320095 237.67,55.128 C235.233988,53.2239905 233.316007,50.8580141 231.916,48.03 C230.515993,45.2019859 229.732001,41.9120188 229.564,38.16 C229.451999,35.8639885 229.396,33.4280129 229.396,30.852 C229.396,28.2759871 229.451999,25.784012 229.564,23.376 C229.732001,19.6799815 230.515993,16.4040143 231.916,13.548 C233.316007,10.6919857 235.233988,8.2840098 237.67,6.324 C240.106012,4.3639902 243.003983,2.88000504 246.364,1.872 C249.724017,0.86399496 253.475979,0.36 257.62,0.36 C261.70802,0.36 265.445983,0.86399496 268.834,1.872 C272.222017,2.88000504 275.133988,4.3639902 277.57,6.324 C280.006012,8.2840098 281.923993,10.6919857 283.324,13.548 C284.724007,16.4040143 285.507999,19.6799815 285.676,23.376 Z M251.404,37.656 C251.516001,40.0080118 252.117995,41.7299945 253.21,42.822 C254.302005,43.9140055 255.771991,44.46 257.62,44.46 C259.468009,44.46 260.937995,43.9140055 262.03,42.822 C263.122005,41.7299945 263.723999,40.0080118 263.836,37.656 C264.004001,32.8959762 264.004001,28.1920232 263.836,23.544 C263.723999,21.1919882 263.108006,19.4700055 261.988,18.378 C260.867994,17.2859945 259.412009,16.74 257.62,16.74 C255.827991,16.74 254.372006,17.2859945 253.252,18.378 C252.131994,19.4700055 251.516001,21.1919882 251.404,23.544 C251.235999,28.1920232 251.235999,32.8959762 251.404,37.656 Z M323.728,60 C323.111997,60 322.580002,59.7760022 322.132,59.328 C321.683998,58.8799978 321.46,58.3480031 321.46,57.732 L321.46,41.184 L302.56,3.804 C302.447999,3.57999888 302.392,3.3280014 302.392,3.048 C302.392,2.54399748 302.573998,2.11000182 302.938,1.746 C303.302002,1.38199818 303.735997,1.2 304.24,1.2 L320.032,1.2 C321.152006,1.2 321.991997,1.4799972 322.552,2.04 C323.112003,2.6000028 323.447999,3.0199986 323.56,3.3 L331.96,20.184 L340.36,3.3 C340.472001,3.0199986 340.807997,2.6000028 341.368,2.04 C341.928003,1.4799972 342.767994,1.2 343.888,1.2 L359.68,1.2 C360.184003,1.2 360.617998,1.38199818 360.982,1.746 C361.346002,2.11000182 361.528,2.54399748 361.528,3.048 C361.528,3.3280014 361.472001,3.57999888 361.36,3.804 L342.46,41.184 L342.46,57.732 C342.46,58.3480031 342.236002,58.8799978 341.788,59.328 C341.339998,59.7760022 340.808003,60 340.192,60 L323.728,60 Z M418.144,23.376 C418.256001,25.784012 418.312,28.2759871 418.312,30.852 C418.312,33.4280129 418.256001,35.8639885 418.144,38.16 C417.975999,41.9120188 417.192007,45.2019859 415.792,48.03 C414.391993,50.8580141 412.474012,53.2239905 410.038,55.128 C407.601988,57.0320095 404.690017,58.4599952 401.302,59.412 C397.913983,60.3640048 394.17602,60.84 390.088,60.84 C385.943979,60.84 382.192017,60.3640048 378.832,59.412 C375.471983,58.4599952 372.574012,57.0320095 370.138,55.128 C367.701988,53.2239905 365.784007,50.8580141 364.384,48.03 C362.983993,45.2019859 362.200001,41.9120188 362.032,38.16 C361.919999,35.8639885 361.864,33.4280129 361.864,30.852 C361.864,28.2759871 361.919999,25.784012 362.032,23.376 C362.200001,19.6799815 362.983993,16.4040143 364.384,13.548 C365.784007,10.6919857 367.701988,8.2840098 370.138,6.324 C372.574012,4.3639902 375.471983,2.88000504 378.832,1.872 C382.192017,0.86399496 385.943979,0.36 390.088,0.36 C394.17602,0.36 397.913983,0.86399496 401.302,1.872 C404.690017,2.88000504 407.601988,4.3639902 410.038,6.324 C412.474012,8.2840098 414.391993,10.6919857 415.792,13.548 C417.192007,16.4040143 417.975999,19.6799815 418.144,23.376 Z M383.872,37.656 C383.984001,40.0080118 384.585995,41.7299945 385.678,42.822 C386.770005,43.9140055 388.239991,44.46 390.088,44.46 C391.936009,44.46 393.405995,43.9140055 394.498,42.822 C395.590005,41.7299945 396.191999,40.0080118 396.304,37.656 C396.472001,32.8959762 396.472001,28.1920232 396.304,23.544 C396.191999,21.1919882 395.576006,19.4700055 394.456,18.378 C393.335994,17.2859945 391.880009,16.74 390.088,16.74 C388.295991,16.74 386.840006,17.2859945 385.72,18.378 C384.599994,19.4700055 383.984001,21.1919882 383.872,23.544 C383.703999,28.1920232 383.703999,32.8959762 383.872,37.656 Z M477.532,1.2 C478.148003,1.2 478.679998,1.42399776 479.128,1.872 C479.576002,2.32000224 479.8,2.85199692 479.8,3.468 L479.8,37.824 C479.8,41.8000199 479.128007,45.2299856 477.784,48.114 C476.439993,50.9980144 474.578012,53.3919905 472.198,55.296 C469.817988,57.2000095 466.962017,58.5999955 463.63,59.496 C460.297983,60.3920045 456.64402,60.84 452.668,60.84 C448.63598,60.84 444.940017,60.3920045 441.58,59.496 C438.219983,58.5999955 435.350012,57.2000095 432.97,55.296 C430.589988,53.3919905 428.728007,50.9980144 427.384,48.114 C426.039993,45.2299856 425.368,41.8000199 425.368,37.824 L425.368,3.468 C425.368,2.85199692 425.591998,2.32000224 426.04,1.872 C426.488002,1.42399776 427.019997,1.2 427.636,1.2 L444.1,1.2 C444.716003,1.2 445.247998,1.42399776 445.696,1.872 C446.144002,2.32000224 446.368,2.85199692 446.368,3.468 L446.368,37.488 C446.368,41.8000216 448.439979,43.956 452.584,43.956 C456.728021,43.956 458.8,41.8000216 458.8,37.488 L458.8,3.468 C458.8,2.85199692 459.023998,2.32000224 459.472,1.872 C459.920002,1.42399776 460.451997,1.2 461.068,1.2 L477.532,1.2 Z M520.708,40.848 C521.324003,40.848 521.855998,41.0719978 522.304,41.52 C522.752002,41.9680022 522.976,42.4999969 522.976,43.116 L522.976,57.732 C522.976,58.3480031 522.752002,58.8799978 522.304,59.328 C521.855998,59.7760022 521.324003,60 520.708,60 L506.092,60 C505.475997,60 504.944002,59.7760022 504.496,59.328 C504.047998,58.8799978 503.824,58.3480031 503.824,57.732 L503.824,43.116 C503.824,42.4999969 504.047998,41.9680022 504.496,41.52 C504.944002,41.0719978 505.475997,40.848 506.092,40.848 L520.708,40.848 Z M520.708,1.2 C521.324003,1.2 521.855998,1.42399776 522.304,1.872 C522.752002,2.32000224 522.976,2.85199692 522.976,3.468 L522.976,35.22 C522.976,35.8360031 522.752002,36.3679978 522.304,36.816 C521.855998,37.2640022 521.324003,37.488 520.708,37.488 L506.092,37.488 C505.475997,37.488 504.944002,37.2640022 504.496,36.816 C504.047998,36.3679978 503.824,35.8360031 503.824,35.22 L503.824,3.468 C503.824,2.85199692 504.047998,2.32000224 504.496,1.872 C504.944002,1.42399776 505.475997,1.2 506.092,1.2 L520.708,1.2 Z" id="HELLO-YOU-!" opacity="0.362332589"></path>
                <path d="M53.96,6.2 C54.5760031,6.2 55.1079978,6.42399776 55.556,6.872 C56.0040022,7.32000224 56.228,7.85199692 56.228,8.468 L56.228,62.732 C56.228,63.3480031 56.0040022,63.8799978 55.556,64.328 C55.1079978,64.7760022 54.5760031,65 53.96,65 L37.496,65 C36.8799969,65 36.3480022,64.7760022 35.9,64.328 C35.4519978,63.8799978 35.228,63.3480031 35.228,62.732 L35.228,44.588 L21.62,44.588 L21.62,62.732 C21.62,63.3480031 21.3960022,63.8799978 20.948,64.328 C20.4999978,64.7760022 19.9680031,65 19.352,65 L2.888,65 C2.27199692,65 1.74000224,64.7900021 1.292,64.37 C0.84399776,63.9499979 0.62,63.4040034 0.62,62.732 L0.62,8.468 C0.62,7.85199692 0.84399776,7.32000224 1.292,6.872 C1.74000224,6.42399776 2.27199692,6.2 2.888,6.2 L19.352,6.2 C19.9680031,6.2 20.4999978,6.42399776 20.948,6.872 C21.3960022,7.32000224 21.62,7.85199692 21.62,8.468 L21.62,26.108 L35.228,26.108 L35.228,8.468 C35.228,7.85199692 35.4519978,7.32000224 35.9,6.872 C36.3480022,6.42399776 36.8799969,6.2 37.496,6.2 L53.96,6.2 Z M111.5,48.62 C112.116003,48.62 112.647998,48.8439978 113.096,49.292 C113.544002,49.7400022 113.768,50.2719969 113.768,50.888 L113.768,62.732 C113.768,63.3480031 113.544002,63.8799978 113.096,64.328 C112.647998,64.7760022 112.116003,65 111.5,65 L67.736,65 C67.1199969,65 66.5880022,64.7760022 66.14,64.328 C65.6919978,63.8799978 65.468,63.3480031 65.468,62.732 L65.468,8.468 C65.468,7.85199692 65.6919978,7.32000224 66.14,6.872 C66.5880022,6.42399776 67.1199969,6.2 67.736,6.2 L110.828,6.2 C111.444003,6.2 111.975998,6.42399776 112.424,6.872 C112.872002,7.32000224 113.096,7.85199692 113.096,8.468 L113.096,20.312 C113.096,20.9280031 112.872002,21.4599978 112.424,21.908 C111.975998,22.3560022 111.444003,22.58 110.828,22.58 L85.628,22.58 L85.628,27.872 L108.98,27.872 C109.596003,27.872 110.127998,28.0959978 110.576,28.544 C111.024002,28.9920022 111.248,29.5239969 111.248,30.14 L111.248,41.06 C111.248,41.6760031 111.024002,42.2079978 110.576,42.656 C110.127998,43.1040022 109.596003,43.328 108.98,43.328 L85.628,43.328 L85.628,48.62 L111.5,48.62 Z M166.1,47.78 C166.716003,47.78 167.247998,48.0039978 167.696,48.452 C168.144002,48.9000022 168.368,49.4319969 168.368,50.048 L168.368,62.732 C168.368,63.3480031 168.144002,63.8799978 167.696,64.328 C167.247998,64.7760022 166.716003,65 166.1,65 L123.764,65 C123.147997,65 122.616002,64.7760022 122.168,64.328 C121.719998,63.8799978 121.496,63.3480031 121.496,62.732 L121.496,8.468 C121.496,7.85199692 121.719998,7.32000224 122.168,6.872 C122.616002,6.42399776 123.147997,6.2 123.764,6.2 L140.564,6.2 C141.180003,6.2 141.711998,6.42399776 142.16,6.872 C142.608002,7.32000224 142.832,7.85199692 142.832,8.468 L142.832,47.78 L166.1,47.78 Z M218.684,47.78 C219.300003,47.78 219.831998,48.0039978 220.28,48.452 C220.728002,48.9000022 220.952,49.4319969 220.952,50.048 L220.952,62.732 C220.952,63.3480031 220.728002,63.8799978 220.28,64.328 C219.831998,64.7760022 219.300003,65 218.684,65 L176.348,65 C175.731997,65 175.200002,64.7760022 174.752,64.328 C174.303998,63.8799978 174.08,63.3480031 174.08,62.732 L174.08,8.468 C174.08,7.85199692 174.303998,7.32000224 174.752,6.872 C175.200002,6.42399776 175.731997,6.2 176.348,6.2 L193.148,6.2 C193.764003,6.2 194.295998,6.42399776 194.744,6.872 C195.192002,7.32000224 195.416,7.85199692 195.416,8.468 L195.416,47.78 L218.684,47.78 Z M280.676,28.376 C280.788001,30.784012 280.844,33.2759871 280.844,35.852 C280.844,38.4280129 280.788001,40.8639885 280.676,43.16 C280.507999,46.9120188 279.724007,50.2019859 278.324,53.03 C276.923993,55.8580141 275.006012,58.2239905 272.57,60.128 C270.133988,62.0320095 267.222017,63.4599952 263.834,64.412 C260.445983,65.3640048 256.70802,65.84 252.62,65.84 C248.475979,65.84 244.724017,65.3640048 241.364,64.412 C238.003983,63.4599952 235.106012,62.0320095 232.67,60.128 C230.233988,58.2239905 228.316007,55.8580141 226.916,53.03 C225.515993,50.2019859 224.732001,46.9120188 224.564,43.16 C224.451999,40.8639885 224.396,38.4280129 224.396,35.852 C224.396,33.2759871 224.451999,30.784012 224.564,28.376 C224.732001,24.6799815 225.515993,21.4040143 226.916,18.548 C228.316007,15.6919857 230.233988,13.2840098 232.67,11.324 C235.106012,9.3639902 238.003983,7.88000504 241.364,6.872 C244.724017,5.86399496 248.475979,5.36 252.62,5.36 C256.70802,5.36 260.445983,5.86399496 263.834,6.872 C267.222017,7.88000504 270.133988,9.3639902 272.57,11.324 C275.006012,13.2840098 276.923993,15.6919857 278.324,18.548 C279.724007,21.4040143 280.507999,24.6799815 280.676,28.376 Z M246.404,42.656 C246.516001,45.0080118 247.117995,46.7299945 248.21,47.822 C249.302005,48.9140055 250.771991,49.46 252.62,49.46 C254.468009,49.46 255.937995,48.9140055 257.03,47.822 C258.122005,46.7299945 258.723999,45.0080118 258.836,42.656 C259.004001,37.8959762 259.004001,33.1920232 258.836,28.544 C258.723999,26.1919882 258.108006,24.4700055 256.988,23.378 C255.867994,22.2859945 254.412009,21.74 252.62,21.74 C250.827991,21.74 249.372006,22.2859945 248.252,23.378 C247.131994,24.4700055 246.516001,26.1919882 246.404,28.544 C246.235999,33.1920232 246.235999,37.8959762 246.404,42.656 Z M318.728,65 C318.111997,65 317.580002,64.7760022 317.132,64.328 C316.683998,63.8799978 316.46,63.3480031 316.46,62.732 L316.46,46.184 L297.56,8.804 C297.447999,8.57999888 297.392,8.3280014 297.392,8.048 C297.392,7.54399748 297.573998,7.11000182 297.938,6.746 C298.302002,6.38199818 298.735997,6.2 299.24,6.2 L315.032,6.2 C316.152006,6.2 316.991997,6.4799972 317.552,7.04 C318.112003,7.6000028 318.447999,8.0199986 318.56,8.3 L326.96,25.184 L335.36,8.3 C335.472001,8.0199986 335.807997,7.6000028 336.368,7.04 C336.928003,6.4799972 337.767994,6.2 338.888,6.2 L354.68,6.2 C355.184003,6.2 355.617998,6.38199818 355.982,6.746 C356.346002,7.11000182 356.528,7.54399748 356.528,8.048 C356.528,8.3280014 356.472001,8.57999888 356.36,8.804 L337.46,46.184 L337.46,62.732 C337.46,63.3480031 337.236002,63.8799978 336.788,64.328 C336.339998,64.7760022 335.808003,65 335.192,65 L318.728,65 Z M413.144,28.376 C413.256001,30.784012 413.312,33.2759871 413.312,35.852 C413.312,38.4280129 413.256001,40.8639885 413.144,43.16 C412.975999,46.9120188 412.192007,50.2019859 410.792,53.03 C409.391993,55.8580141 407.474012,58.2239905 405.038,60.128 C402.601988,62.0320095 399.690017,63.4599952 396.302,64.412 C392.913983,65.3640048 389.17602,65.84 385.088,65.84 C380.943979,65.84 377.192017,65.3640048 373.832,64.412 C370.471983,63.4599952 367.574012,62.0320095 365.138,60.128 C362.701988,58.2239905 360.784007,55.8580141 359.384,53.03 C357.983993,50.2019859 357.200001,46.9120188 357.032,43.16 C356.919999,40.8639885 356.864,38.4280129 356.864,35.852 C356.864,33.2759871 356.919999,30.784012 357.032,28.376 C357.200001,24.6799815 357.983993,21.4040143 359.384,18.548 C360.784007,15.6919857 362.701988,13.2840098 365.138,11.324 C367.574012,9.3639902 370.471983,7.88000504 373.832,6.872 C377.192017,5.86399496 380.943979,5.36 385.088,5.36 C389.17602,5.36 392.913983,5.86399496 396.302,6.872 C399.690017,7.88000504 402.601988,9.3639902 405.038,11.324 C407.474012,13.2840098 409.391993,15.6919857 410.792,18.548 C412.192007,21.4040143 412.975999,24.6799815 413.144,28.376 Z M378.872,42.656 C378.984001,45.0080118 379.585995,46.7299945 380.678,47.822 C381.770005,48.9140055 383.239991,49.46 385.088,49.46 C386.936009,49.46 388.405995,48.9140055 389.498,47.822 C390.590005,46.7299945 391.191999,45.0080118 391.304,42.656 C391.472001,37.8959762 391.472001,33.1920232 391.304,28.544 C391.191999,26.1919882 390.576006,24.4700055 389.456,23.378 C388.335994,22.2859945 386.880009,21.74 385.088,21.74 C383.295991,21.74 381.840006,22.2859945 380.72,23.378 C379.599994,24.4700055 378.984001,26.1919882 378.872,28.544 C378.703999,33.1920232 378.703999,37.8959762 378.872,42.656 Z M472.532,6.2 C473.148003,6.2 473.679998,6.42399776 474.128,6.872 C474.576002,7.32000224 474.8,7.85199692 474.8,8.468 L474.8,42.824 C474.8,46.8000199 474.128007,50.2299856 472.784,53.114 C471.439993,55.9980144 469.578012,58.3919905 467.198,60.296 C464.817988,62.2000095 461.962017,63.5999955 458.63,64.496 C455.297983,65.3920045 451.64402,65.84 447.668,65.84 C443.63598,65.84 439.940017,65.3920045 436.58,64.496 C433.219983,63.5999955 430.350012,62.2000095 427.97,60.296 C425.589988,58.3919905 423.728007,55.9980144 422.384,53.114 C421.039993,50.2299856 420.368,46.8000199 420.368,42.824 L420.368,8.468 C420.368,7.85199692 420.591998,7.32000224 421.04,6.872 C421.488002,6.42399776 422.019997,6.2 422.636,6.2 L439.1,6.2 C439.716003,6.2 440.247998,6.42399776 440.696,6.872 C441.144002,7.32000224 441.368,7.85199692 441.368,8.468 L441.368,42.488 C441.368,46.8000216 443.439979,48.956 447.584,48.956 C451.728021,48.956 453.8,46.8000216 453.8,42.488 L453.8,8.468 C453.8,7.85199692 454.023998,7.32000224 454.472,6.872 C454.920002,6.42399776 455.451997,6.2 456.068,6.2 L472.532,6.2 Z M515.708,45.848 C516.324003,45.848 516.855998,46.0719978 517.304,46.52 C517.752002,46.9680022 517.976,47.4999969 517.976,48.116 L517.976,62.732 C517.976,63.3480031 517.752002,63.8799978 517.304,64.328 C516.855998,64.7760022 516.324003,65 515.708,65 L501.092,65 C500.475997,65 499.944002,64.7760022 499.496,64.328 C499.047998,63.8799978 498.824,63.3480031 498.824,62.732 L498.824,48.116 C498.824,47.4999969 499.047998,46.9680022 499.496,46.52 C499.944002,46.0719978 500.475997,45.848 501.092,45.848 L515.708,45.848 Z M515.708,6.2 C516.324003,6.2 516.855998,6.42399776 517.304,6.872 C517.752002,7.32000224 517.976,7.85199692 517.976,8.468 L517.976,40.22 C517.976,40.8360031 517.752002,41.3679978 517.304,41.816 C516.855998,42.2640022 516.324003,42.488 515.708,42.488 L501.092,42.488 C500.475997,42.488 499.944002,42.2640022 499.496,41.816 C499.047998,41.3679978 498.824,40.8360031 498.824,40.22 L498.824,8.468 C498.824,7.85199692 499.047998,7.32000224 499.496,6.872 C499.944002,6.42399776 500.475997,6.2 501.092,6.2 L515.708,6.2 Z" id="HELLO-YOU-!"></path>
            </g>
        </g>
    </g>
</svg>