<?xml version="1.0" encoding="UTF-8"?>
<svg width="46px" height="29px" viewBox="0 0 46 29" version="1.1" xmlns="http://www.w3.org/2000/svg" xmlns:xlink="http://www.w3.org/1999/xlink">
    <!-- Generator: Sketch 51.3 (57544) - http://www.bohemiancoding.com/sketch -->
    <title>logo_white</title>
    <desc>Created with Sketch.</desc>
    <defs></defs>
    <g id="Page-1" stroke="none" stroke-width="1" fill="none" fill-rule="evenodd">
        <g id="Home" transform="translate(-78.000000, -70.000000)" fill="#FFFFFF">
            <g id="logo_white" transform="translate(100.632210, 84.548910) rotate(-3.000000) translate(-100.632210, -84.548910) translate(75.132210, 69.048910)">
                <path d="M16.7095363,0.854212361 L16.7095363,8.66477236 C16.7095363,12.2590124 14.6704963,14.1079724 10.3504963,14.1079724 C5.30473631,14.1079724 3.59401631,10.9111724 4.06057631,7.50701236 L9.55561631,6.52205236 C9.27913631,7.05773236 9.10633631,7.47245236 9.10633631,8.25005236 C9.10633631,9.23501236 9.65929631,9.68429236 10.3332163,9.68429236 C11.0589763,9.68429236 11.5255363,9.42509236 11.5255363,8.35373236 L11.5255363,5.34701236 L6.60073631,5.34701236 L5.85769631,0.854212361 L16.7095363,0.854212361 Z M23.8461763,2.30573236 C28.1661763,2.30573236 30.2052163,4.13741236 30.2052163,7.73165236 L30.2052163,13.8142124 L25.0212163,13.8142124 L25.2285763,10.8420524 L25.1248963,10.8247724 C24.9175363,13.2612524 23.1549763,14.0906924 21.1504963,14.0906924 C19.1114563,14.0906924 17.8845763,13.5031724 17.8845763,11.8097324 C17.8845763,10.0298924 19.3015363,9.23501236 22.3082563,9.13133236 L22.3082563,9.02765236 L17.5562563,8.38829236 C17.1242563,5.24333236 18.8004163,2.30573236 23.8461763,2.30573236 Z M23.8288963,6.71213236 C23.1549763,6.71213236 22.6020163,7.10957236 22.6020163,7.97357236 C22.6020163,8.44013236 22.7056963,8.66477236 22.9648963,9.02765236 C23.9152963,8.90669236 25.0212163,8.54381236 25.0212163,7.86989236 C25.0212163,6.97133236 24.5546563,6.71213236 23.8288963,6.71213236 Z M23.2413763,10.7210924 C23.9325763,10.7210924 24.4164163,10.5655724 25.0212163,10.1854124 L25.0212163,8.94125236 C24.7792963,9.13133236 24.3645763,9.30413236 23.5524163,9.47693236 C22.5847363,9.70157236 22.3428163,9.85709236 22.3428163,10.2372524 C22.3428163,10.5482924 22.6020163,10.7210924 23.2413763,10.7210924 Z M38.3268163,2.58221236 L43.7181763,2.58221236 L41.1434563,15.5422124 L35.8039363,15.5422124 L36.8752963,12.7774124 L32.6244163,12.7774124 L30.8100163,2.58221236 L36.1495363,2.58221236 L37.1690563,9.70157236 L37.3418563,9.70157236 L38.3268163,2.58221236 Z" id="Jay"></path>
                <path d="M30.222638,22.5445256 C32.883758,22.7691656 34.093358,23.8405256 34.093358,25.3957256 C34.093358,27.9013256 31.881518,29.0072456 28.045358,29.0072456 L20.459438,29.0072456 L20.459438,16.0472456 L27.526958,16.0472456 C31.224878,16.0472456 33.574958,17.2050056 33.574958,19.6242056 C33.574958,21.1275656 32.780078,21.9915656 30.222638,22.3198856 L30.222638,22.5445256 Z M27.405998,20.0216456 L25.643438,20.0216456 L25.643438,21.4904456 L27.008558,21.4904456 C27.751598,21.4904456 28.218158,21.3176456 28.218158,20.7474056 C28.218158,20.1253256 27.820718,20.0216456 27.405998,20.0216456 Z M27.924398,25.0328456 C28.339118,25.0328456 28.736558,24.8946056 28.736558,24.2898056 C28.736558,23.7368456 28.269998,23.5640456 27.526958,23.5640456 L25.643438,23.5640456 L25.643438,25.0328456 L27.924398,25.0328456 Z M47.692718,23.6677256 C48.090158,26.5880456 46.033838,29.2837256 41.316398,29.2837256 C36.875438,29.2837256 34.784558,27.4520456 34.784558,23.2875656 C34.784558,19.2786056 37.981358,17.4987656 40.659758,17.4987656 C44.219438,17.4987656 46.638638,18.7774856 46.863278,21.8706056 L43.078958,23.2011656 L43.078958,23.3221256 L47.692718,23.6677256 Z M40.780718,21.4040456 C40.365998,21.4040456 39.968558,21.7669256 39.968558,23.2875656 C39.968558,23.4085256 39.968558,23.5294856 39.985838,23.6331656 L41.627438,23.0629256 C41.661998,21.8360456 41.247278,21.4040456 40.780718,21.4040456 Z M41.333678,25.0501256 C42.042158,25.0501256 42.612398,24.7045256 42.612398,24.0133256 C42.612398,23.7541256 42.577838,23.5986056 42.491438,23.4258056 L40.106798,24.2552456 C40.314158,24.8427656 40.746158,25.0501256 41.333678,25.0501256 Z" id="Be"></path>
            </g>
        </g>
    </g>
</svg>