<?xml version="1.0" encoding="UTF-8"?>
<svg width="46px" height="29px" viewBox="0 0 46 29" version="1.1" xmlns="http://www.w3.org/2000/svg" xmlns:xlink="http://www.w3.org/1999/xlink">
    <!-- Generator: Sketch 51.3 (57544) - http://www.bohemiancoding.com/sketch -->
    <title>logo_gray</title>
    <desc>Created with Sketch.</desc>
    <defs></defs>
    <g id="Page-1" stroke="none" stroke-width="1" fill="none" fill-rule="evenodd">
        <g id="À-propos" transform="translate(-78.000000, -70.000000)" fill="#BABABA">
            <g id="logo_gray" transform="translate(100.632210, 84.548910) rotate(-3.000000) translate(-100.632210, -84.548910) translate(78.132210, 70.048910)">
                <path d="M13.7040545,0.0635561861 L13.7040545,7.87411619 C13.7040545,11.4683562 11.6650145,13.3173162 7.34501445,13.3173162 C2.29925445,13.3173162 0.588534454,10.1205162 1.05509445,6.71635619 L6.55013445,5.73139619 C6.27365445,6.26707619 6.10085445,6.68179619 6.10085445,7.45939619 C6.10085445,8.44435619 6.65381445,8.89363619 7.32773445,8.89363619 C8.05349445,8.89363619 8.52005445,8.63443619 8.52005445,7.56307619 L8.52005445,4.55635619 L3.59525445,4.55635619 L2.85221445,0.0635561861 L13.7040545,0.0635561861 Z M20.8406945,1.51507619 C25.1606945,1.51507619 27.1997345,3.34675619 27.1997345,6.94099619 L27.1997345,13.0235562 L22.0157345,13.0235562 L22.2230945,10.0513962 L22.1194145,10.0341162 C21.9120545,12.4705962 20.1494945,13.3000362 18.1450145,13.3000362 C16.1059745,13.3000362 14.8790945,12.7125162 14.8790945,11.0190762 C14.8790945,9.23923619 16.2960545,8.44435619 19.3027745,8.34067619 L19.3027745,8.23699619 L14.5507745,7.59763619 C14.1187745,4.45267619 15.7949345,1.51507619 20.8406945,1.51507619 Z M20.8234145,5.92147619 C20.1494945,5.92147619 19.5965345,6.31891619 19.5965345,7.18291619 C19.5965345,7.64947619 19.7002145,7.87411619 19.9594145,8.23699619 C20.9098145,8.11603619 22.0157345,7.75315619 22.0157345,7.07923619 C22.0157345,6.18067619 21.5491745,5.92147619 20.8234145,5.92147619 Z M20.2358945,9.93043619 C20.9270945,9.93043619 21.4109345,9.77491619 22.0157345,9.39475619 L22.0157345,8.15059619 C21.7738145,8.34067619 21.3590945,8.51347619 20.5469345,8.68627619 C19.5792545,8.91091619 19.3373345,9.06643619 19.3373345,9.44659619 C19.3373345,9.75763619 19.5965345,9.93043619 20.2358945,9.93043619 Z M35.3213345,1.79155619 L40.7126945,1.79155619 L38.1379745,14.7515562 L32.7984545,14.7515562 L33.8698145,11.9867562 L29.6189345,11.9867562 L27.8045345,1.79155619 L33.1440545,1.79155619 L34.1635745,8.91091619 L34.3363745,8.91091619 L35.3213345,1.79155619 Z" id="Jay"></path>
                <path d="M27.2328569,21.4542805 C29.8939769,21.6789205 31.1035769,22.7502805 31.1035769,24.3054805 C31.1035769,26.8110805 28.8917369,27.9170005 25.0555769,27.9170005 L17.4696569,27.9170005 L17.4696569,14.9570005 L24.5371769,14.9570005 C28.2350969,14.9570005 30.5851769,16.1147605 30.5851769,18.5339605 C30.5851769,20.0373205 29.7902969,20.9013205 27.2328569,21.2296405 L27.2328569,21.4542805 Z M24.4162169,18.9314005 L22.6536569,18.9314005 L22.6536569,20.4002005 L24.0187769,20.4002005 C24.7618169,20.4002005 25.2283769,20.2274005 25.2283769,19.6571605 C25.2283769,19.0350805 24.8309369,18.9314005 24.4162169,18.9314005 Z M24.9346169,23.9426005 C25.3493369,23.9426005 25.7467769,23.8043605 25.7467769,23.1995605 C25.7467769,22.6466005 25.2802169,22.4738005 24.5371769,22.4738005 L22.6536569,22.4738005 L22.6536569,23.9426005 L24.9346169,23.9426005 Z M44.7029369,22.5774805 C45.1003769,25.4978005 43.0440569,28.1934805 38.3266169,28.1934805 C33.8856569,28.1934805 31.7947769,26.3618005 31.7947769,22.1973205 C31.7947769,18.1883605 34.9915769,16.4085205 37.6699769,16.4085205 C41.2296569,16.4085205 43.6488569,17.6872405 43.8734969,20.7803605 L40.0891769,22.1109205 L40.0891769,22.2318805 L44.7029369,22.5774805 Z M37.7909369,20.3138005 C37.3762169,20.3138005 36.9787769,20.6766805 36.9787769,22.1973205 C36.9787769,22.3182805 36.9787769,22.4392405 36.9960569,22.5429205 L38.6376569,21.9726805 C38.6722169,20.7458005 38.2574969,20.3138005 37.7909369,20.3138005 Z M38.3438969,23.9598805 C39.0523769,23.9598805 39.6226169,23.6142805 39.6226169,22.9230805 C39.6226169,22.6638805 39.5880569,22.5083605 39.5016569,22.3355605 L37.1170169,23.1650005 C37.3243769,23.7525205 37.7563769,23.9598805 38.3438969,23.9598805 Z" id="Be"></path>
            </g>
        </g>
    </g>
</svg>