<svg width="125" height="104" viewBox="0 0 125 104" fill="none" xmlns="http://www.w3.org/2000/svg">
<path d="M29.651 40.978C29.485 45.5707 29.485 50.2187 29.651 54.922C29.7617 57.4673 30.3427 59.238 31.394 60.234C32.5007 61.1747 33.967 61.645 35.793 61.645C37.2317 61.645 38.4767 61.313 39.528 60.649C40.6347 59.985 41.4647 58.823 42.018 57.163C42.2947 56.2223 42.6267 55.586 43.014 55.254C43.4567 54.922 44.1483 54.756 45.089 54.756H62.021C62.519 54.756 62.934 54.9497 63.266 55.337C63.6533 55.669 63.847 56.084 63.847 56.582C63.7917 60.3447 62.9617 63.5817 61.357 66.293C59.7523 68.949 57.6497 71.1347 55.049 72.85C52.4483 74.5653 49.488 75.838 46.168 76.668C42.848 77.4427 39.4173 77.83 35.876 77.83C31.892 77.83 28.24 77.415 24.92 76.585C21.6 75.6997 18.695 74.344 16.205 72.518C13.7703 70.692 11.8337 68.368 10.395 65.546C9.01167 62.724 8.237 59.321 8.071 55.337C7.96033 53.0683 7.905 50.6337 7.905 48.033C7.905 45.4323 7.96033 42.9423 8.071 40.563C8.237 36.6897 9.03933 33.342 10.478 30.52C11.972 27.698 13.9363 25.374 16.371 23.548C18.861 21.6667 21.766 20.2833 25.086 19.398C28.406 18.5127 32.0027 18.07 35.876 18.07C39.4173 18.07 42.848 18.485 46.168 19.315C49.488 20.0897 52.4483 21.3347 55.049 23.05C57.6497 24.7653 59.7523 26.9787 61.357 29.69C62.9617 32.346 63.7917 35.5553 63.847 39.318C63.847 39.816 63.6533 40.2587 63.266 40.646C62.934 40.978 62.519 41.144 62.021 41.144H45.089C44.1483 41.144 43.4843 40.978 43.097 40.646C42.7097 40.314 42.35 39.6777 42.018 38.737C41.4093 36.9663 40.5793 35.7767 39.528 35.168C38.4767 34.5593 37.2317 34.255 35.793 34.255C33.967 34.255 32.5007 34.753 31.394 35.749C30.3427 36.6897 29.7617 38.4327 29.651 40.978ZM94.38 52.515L102.265 21.639C102.431 21.0303 102.818 20.4217 103.427 19.813C104.036 19.2043 104.893 18.9 106 18.9H121.438C121.936 18.9 122.351 19.0937 122.683 19.481C123.07 19.813 123.264 20.228 123.264 20.726C123.264 20.892 123.236 21.0857 123.181 21.307L107.577 74.261C107.411 74.8697 107.024 75.4783 106.415 76.087C105.806 76.6957 104.949 77 103.842 77H84.918C83.8113 77 82.9536 76.6957 82.345 76.087C81.7363 75.4783 81.349 74.8697 81.183 74.261L65.579 21.307C65.5236 21.0857 65.496 20.892 65.496 20.726C65.496 20.228 65.662 19.813 65.994 19.481C66.3813 19.0937 66.824 18.9 67.322 18.9H82.76C83.8666 18.9 84.7243 19.2043 85.333 19.813C85.9416 20.4217 86.329 21.0303 86.495 21.639L94.38 52.515Z" fill="#797979"/>
<path d="M24.651 46.978C24.485 51.5707 24.485 56.2187 24.651 60.922C24.7617 63.4673 25.3427 65.238 26.394 66.234C27.5007 67.1747 28.967 67.645 30.793 67.645C32.2317 67.645 33.4767 67.313 34.528 66.649C35.6347 65.985 36.4647 64.823 37.018 63.163C37.2947 62.2223 37.6267 61.586 38.014 61.254C38.4567 60.922 39.1483 60.756 40.089 60.756H57.021C57.519 60.756 57.934 60.9497 58.266 61.337C58.6533 61.669 58.847 62.084 58.847 62.582C58.7917 66.3447 57.9617 69.5817 56.357 72.293C54.7523 74.949 52.6497 77.1347 50.049 78.85C47.4483 80.5653 44.488 81.838 41.168 82.668C37.848 83.4427 34.4173 83.83 30.876 83.83C26.892 83.83 23.24 83.415 19.92 82.585C16.6 81.6997 13.695 80.344 11.205 78.518C8.77033 76.692 6.83367 74.368 5.395 71.546C4.01167 68.724 3.237 65.321 3.071 61.337C2.96033 59.0683 2.905 56.6337 2.905 54.033C2.905 51.4323 2.96033 48.9423 3.071 46.563C3.237 42.6897 4.03933 39.342 5.478 36.52C6.972 33.698 8.93633 31.374 11.371 29.548C13.861 27.6667 16.766 26.2833 20.086 25.398C23.406 24.5127 27.0027 24.07 30.876 24.07C34.4173 24.07 37.848 24.485 41.168 25.315C44.488 26.0897 47.4483 27.3347 50.049 29.05C52.6497 30.7653 54.7523 32.9787 56.357 35.69C57.9617 38.346 58.7917 41.5553 58.847 45.318C58.847 45.816 58.6533 46.2587 58.266 46.646C57.934 46.978 57.519 47.144 57.021 47.144H40.089C39.1483 47.144 38.4843 46.978 38.097 46.646C37.7097 46.314 37.35 45.6777 37.018 44.737C36.4093 42.9663 35.5793 41.7767 34.528 41.168C33.4767 40.5593 32.2317 40.255 30.793 40.255C28.967 40.255 27.5007 40.753 26.394 41.749C25.3427 42.6897 24.7617 44.4327 24.651 46.978ZM89.38 58.515L97.265 27.639C97.431 27.0303 97.8183 26.4217 98.427 25.813C99.0356 25.2043 99.8933 24.9 101 24.9H116.438C116.936 24.9 117.351 25.0937 117.683 25.481C118.07 25.813 118.264 26.228 118.264 26.726C118.264 26.892 118.236 27.0857 118.181 27.307L102.577 80.261C102.411 80.8697 102.024 81.4783 101.415 82.087C100.806 82.6957 99.9486 83 98.842 83H79.918C78.8113 83 77.9536 82.6957 77.345 82.087C76.7363 81.4783 76.349 80.8697 76.183 80.261L60.579 27.307C60.5236 27.0857 60.496 26.892 60.496 26.726C60.496 26.228 60.662 25.813 60.994 25.481C61.3813 25.0937 61.824 24.9 62.322 24.9H77.76C78.8666 24.9 79.7243 25.2043 80.333 25.813C80.9416 26.4217 81.329 27.0303 81.495 27.639L89.38 58.515Z" fill="#1E1E1E"/>
</svg>
